SplineFontDB: 3.0
FontName: Bodoni-36-Bold
FullName: Bodoni* 36 Bold
FamilyName: Bodoni* 36
Weight: Bold
Copyright: Copyright (c) 2017, Owen Earl,,, (EwonRael@yahoo.com)
Version: 001.0
ItalicAngle: 0
UnderlinePosition: -408
UnderlineWidth: 204
Ascent: 3276
Descent: 820
InvalidEm: 0
LayerCount: 2
Layer: 0 0 "Back" 1
Layer: 1 0 "Fore" 0
PreferredKerning: 4
XUID: [1021 31 -699969567 16487490]
FSType: 0
OS2Version: 0
OS2_WeightWidthSlopeOnly: 0
OS2_UseTypoMetrics: 1
CreationTime: 1460762150
ModificationTime: 1573675648
PfmFamily: 17
TTFWeight: 700
TTFWidth: 5
LineGap: 0
VLineGap: 0
OS2TypoAscent: 4194
OS2TypoAOffset: 0
OS2TypoDescent: -820
OS2TypoDOffset: 0
OS2TypoLinegap: 0
OS2WinAscent: 4096
OS2WinAOffset: 0
OS2WinDescent: 1638
OS2WinDOffset: 0
HheadAscent: 4194
HheadAOffset: 0
HheadDescent: -820
HheadDOffset: 0
OS2CapHeight: 3072
OS2XHeight: 1884
OS2FamilyClass: 768
OS2Vendor: 'it* '
OS2UnicodeRanges: 00000001.00000000.00000000.00000000
Lookup: 1 0 0 "'ss02' Style Set 2 lookup 4" { "'ss02' Style Set 2 lookup 4-1"  } ['ss02' ('DFLT' <'dflt' > 'grek' <'dflt' > 'latn' <'dflt' > ) ]
Lookup: 1 0 0 "'ss03' Style Set 3 lookup 5" { "'ss03' Style Set 3 lookup 5-1"  } ['ss03' ('DFLT' <'dflt' > 'grek' <'dflt' > 'latn' <'dflt' > ) ]
Lookup: 1 0 0 "'ss01' Style Set 1 lookup 2" { "'ss01' Style Set 1 lookup 2-1"  } ['ss01' ('DFLT' <'dflt' > 'grek' <'dflt' > 'latn' <'dflt' > ) ]
Lookup: 5 0 0 "'calt' Contextual Alternates lookup 3" { "'calt' Contextual Alternates lookup 3-1"  } ['calt' ('DFLT' <'dflt' > 'grek' <'dflt' > 'latn' <'dflt' > ) ]
Lookup: 4 0 1 "'liga' Standard Ligatures lookup 0" { "'liga' Standard Ligatures lookup 0-1"  } ['liga' ('DFLT' <'dflt' > 'grek' <'dflt' > 'latn' <'dflt' > ) ]
Lookup: 258 0 0 "'kern' Horizontal Kerning lookup 0" { "kerning like they all do" [150,0,6] } ['kern' ('DFLT' <'dflt' > 'grek' <'dflt' > 'latn' <'dflt' > ) ]
MarkAttachClasses: 1
DEI: 91125
KernClass2: 31 27 "kerning like they all do"

StartChar: ampersand
Encoding: 38 38 0
GlifName: ampersand
Width: 3528
Flags: HMW
LayerCount: 2
Fore
SplineSet
1656 1911 m 9
 1640 1928 l 1
 1756 2007 1908 2145 1908 2611 c 0
 1908 2845 1854 3092 1624 3092 c 0
 1400 3092 1316 2878 1316 2682 c 0
 1316 2518 1438 2270 1614 2008 c 2
 2910 24 l 1
 3416 24 l 1
 3416 0 l 1
 2212 0 l 1
 856 2008 l 2
 750 2164 668 2366 668 2510 c 0
 668 2878 1056 3112 1634 3112 c 0
 2175 3112 2524 2917 2524 2610 c 0
 2524 2230 2120 2079 1656 1911 c 9
1104 1694 m 1
 1116 1680 l 1
 920 1572 814 1378 814 1047 c 0
 814 563 1062 84 1512 84 c 0
 2219 84 2852 964 2932 1876 c 1
 2958 1876 l 1
 2868 968 2261 -40 1163 -40 c 0
 515 -40 159 274 159 722 c 0
 159 1365 928 1612 1104 1694 c 1
2392 1884 m 1
 3374 1884 l 1
 3374 1860 l 1
 2392 1860 l 1
 2392 1884 l 1
EndSplineSet
EndChar

StartChar: period
Encoding: 46 46 1
GlifName: period
Width: 1064
Flags: HMW
LayerCount: 2
Fore
SplineSet
164 328 m 0
 164 530 331 696 533 696 c 0
 735 696 900 530 900 328 c 0
 900 126 735 -40 533 -40 c 0
 331 -40 164 126 164 328 c 0
EndSplineSet
EndChar

StartChar: zero
Encoding: 48 48 2
GlifName: zero
Width: 2702
Flags: HMW
LayerCount: 2
Fore
SplineSet
1352 -40 m 0
 643 -40 164 643 164 1536 c 0
 164 2429 684 3112 1352 3112 c 0
 2020 3112 2540 2429 2540 1536 c 0
 2540 643 2061 -40 1352 -40 c 0
1352 3092 m 0
 967 3092 880 2384 880 1536 c 0
 880 688 926 -20 1352 -20 c 0
 1778 -20 1822 688 1822 1536 c 0
 1822 2384 1758 3092 1352 3092 c 0
EndSplineSet
EndChar

StartChar: one
Encoding: 49 49 3
GlifName: one
Width: 2026
VWidth: 4730
Flags: HMW
LayerCount: 2
Fore
SplineSet
204 24 m 1
 1822 24 l 1
 1822 0 l 1
 204 0 l 1
 204 24 l 1
274 3072 m 1
 1372 3072 l 1
 1372 12 l 1
 738 12 l 1
 738 3048 l 1
 274 3048 l 1
 274 3072 l 1
EndSplineSet
EndChar

StartChar: two
Encoding: 50 50 4
GlifName: two
Width: 2457
VWidth: 4730
Flags: HMW
LayerCount: 2
Fore
SplineSet
2314 0 m 1
 164 0 l 1
 164 409 l 1
 1034 1112 l 2
 1390 1403 1573 1724 1573 2170 c 0
 1573 2678 1369 3023 988 3023 c 0
 568 3023 230 2678 238 2240 c 1
 286 2387 414 2507 594 2507 c 0
 812 2507 974 2358 974 2154 c 0
 974 1929 778 1780 574 1780 c 0
 370 1780 204 1933 204 2248 c 0
 204 2728 586 3112 1229 3112 c 0
 1868 3112 2228 2764 2228 2334 c 0
 2228 1863 1768 1638 1464 1410 c 2
 506 614 l 1
 2290 614 l 1
 2290 922 l 1
 2314 922 l 1
 2314 0 l 1
EndSplineSet
EndChar

StartChar: three
Encoding: 51 51 5
GlifName: three
Width: 2338
VWidth: 4730
Flags: HMW
LayerCount: 2
Fore
SplineSet
2175 840 m 0
 2175 287 1667 -40 1048 -40 c 0
 405 -40 102 324 102 660 c 0
 102 889 257 1038 461 1038 c 0
 645 1038 784 906 784 698 c 0
 784 506 618 368 438 368 c 0
 302 368 215 428 166 514 c 1
 217 272 483 6 958 6 c 0
 1404 6 1515 394 1515 840 c 0
 1515 1204 1401 1646 811 1646 c 1
 811 1668 l 1
 1839 1668 2175 1312 2175 840 c 0
811 1650 m 1
 811 1672 l 1
 1359 1672 1393 2137 1393 2420 c 0
 1393 2744 1282 3066 999 3066 c 0
 705 3066 408 2888 326 2677 c 1
 388 2767 488 2802 582 2802 c 0
 742 2802 897 2678 897 2484 c 0
 897 2269 726 2142 562 2142 c 0
 378 2142 226 2259 226 2478 c 0
 226 2834 650 3108 1068 3108 c 0
 1604 3108 2052 2850 2052 2400 c 0
 2052 1990 1798 1650 811 1650 c 1
EndSplineSet
EndChar

StartChar: four
Encoding: 52 52 6
GlifName: four
Width: 2620
VWidth: 4730
Flags: HMW
LayerCount: 2
Fore
SplineSet
2438 24 m 1
 2438 0 l 1
 1106 0 l 1
 1106 24 l 1
 1495 24 l 1
 1495 2792 l 1
 188 892 l 1
 2580 892 l 1
 2580 868 l 1
 144 868 l 1
 1659 3072 l 1
 2130 3072 l 1
 2130 24 l 1
 2438 24 l 1
EndSplineSet
Substitution2: "'ss03' Style Set 3 lookup 5-1" four.alt
EndChar

StartChar: five
Encoding: 53 53 7
GlifName: five
Width: 2191
VWidth: 4730
Flags: HMW
LayerCount: 2
Fore
SplineSet
1925 2458 m 1
 258 2458 l 1
 258 1462 l 1
 233 1462 l 1
 233 3072 l 1
 1900 3072 l 1
 1900 3298 l 1
 1925 3298 l 1
 1925 2458 l 1
127 393 m 1
 185 189 475 -4 799 -4 c 0
 1245 -4 1392 445 1392 911 c 0
 1392 1459 1241 1814 897 1814 c 0
 594 1814 352 1634 270 1462 c 1
 246 1462 l 1
 332 1655 598 1864 1032 1864 c 0
 1650 1864 2068 1525 2068 911 c 0
 2068 358 1564 -40 884 -40 c 0
 446 -40 42 193 42 569 c 0
 42 798 203 946 397 946 c 0
 581 946 754 829 754 604 c 0
 754 400 577 246 381 246 c 0
 262 246 175 315 127 393 c 1
EndSplineSet
EndChar

StartChar: six
Encoding: 54 54 8
GlifName: six
Width: 2497
VWidth: 4730
Flags: HMW
LayerCount: 2
Fore
SplineSet
1700 1024 m 0
 1700 1676 1554 1952 1292 1952 c 0
 989 1952 880 1678 880 1146 c 1
 860 1146 l 1
 860 1678 939 2018 1417 2018 c 0
 1872 2018 2376 1720 2376 1024 c 0
 2376 410 1966 -40 1307 -40 c 0
 648 -40 204 410 204 1270 c 0
 204 2266 991 3112 2069 3112 c 1
 2069 3092 l 1
 1335 3092 880 2257 880 1393 c 1
 880 1146 l 1
 880 494 997 -16 1320 -16 c 0
 1643 -16 1700 454 1700 1024 c 0
EndSplineSet
EndChar

StartChar: seven
Encoding: 55 55 9
GlifName: seven
Width: 2211
VWidth: 4730
Flags: HMW
LayerCount: 2
Fore
SplineSet
606 372 m 0
 606 696 1002 1084 1276 1528 c 0
 1417 1766 1586 2082 1779 2438 c 1
 188 2438 l 1
 188 2130 l 1
 164 2130 l 1
 164 3072 l 1
 2171 3072 l 1
 2171 3072 1647 2084 1327 1546 c 0
 1124 1198 1048 1109 1048 966 c 0
 1048 708 1384 648 1384 340 c 0
 1384 127 1241 -40 999 -40 c 0
 778 -40 606 85 606 372 c 0
EndSplineSet
EndChar

StartChar: eight
Encoding: 56 56 10
GlifName: eight
Width: 2457
VWidth: 4730
Flags: HMW
LayerCount: 2
Fore
SplineSet
900 2294 m 0
 900 1848 987 1606 1229 1606 c 0
 1471 1606 1556 1848 1556 2294 c 0
 1556 2720 1471 3060 1229 3060 c 0
 987 3060 900 2720 900 2294 c 0
246 2294 m 0
 246 2744 590 3112 1229 3112 c 0
 1868 3112 2212 2744 2212 2294 c 0
 2212 1844 1868 1564 1229 1564 c 0
 590 1564 246 1844 246 2294 c 0
818 778 m 0
 818 352 926 12 1229 12 c 0
 1532 12 1638 352 1638 778 c 0
 1638 1204 1532 1550 1229 1550 c 0
 926 1550 818 1204 818 778 c 0
164 778 m 0
 164 1270 509 1592 1229 1592 c 0
 1949 1592 2294 1270 2294 778 c 0
 2294 286 1949 -40 1229 -40 c 0
 509 -40 164 286 164 778 c 0
EndSplineSet
EndChar

StartChar: A
Encoding: 65 65 12
GlifName: A_
Width: 3204
Flags: HMW
LayerCount: 2
Fore
SplineSet
72 24 m 1
 972 24 l 1
 972 0 l 1
 72 0 l 1
 72 24 l 1
1750 24 m 1
 3144 24 l 1
 3144 0 l 1
 1750 0 l 1
 1750 24 l 1
806 1014 m 1
 2120 1014 l 1
 2120 990 l 1
 806 990 l 1
 806 1014 l 1
1329 2439 m 1
 476 0 l 1
 448 0 l 1
 1550 3134 l 1
 1772 3134 l 1
 2857 0 l 1
 2120 0 l 1
 1329 2439 l 1
EndSplineSet
EndChar

StartChar: B
Encoding: 66 66 13
GlifName: B_
Width: 2856
Flags: HMW
LayerCount: 2
Fore
SplineSet
1464 1568 m 2
 972 1568 l 1
 972 1590 l 1
 1383 1590 l 2
 1673 1590 1915 1786 1915 2274 c 0
 1915 2762 1673 3048 1383 3048 c 2
 72 3048 l 1
 72 3072 l 1
 1464 3072 l 2
 2144 3072 2570 2846 2570 2314 c 0
 2570 1802 2184 1568 1464 1568 c 2
440 3072 m 1
 1075 3072 l 1
 1075 0 l 1
 440 0 l 1
 440 3072 l 1
1546 0 m 2
 72 0 l 1
 72 24 l 1
 1424 24 l 2
 1756 24 1997 372 1997 860 c 0
 1997 1348 1756 1564 1424 1564 c 2
 972 1564 l 1
 972 1586 l 1
 1546 1586 l 2
 2185 1586 2694 1392 2694 819 c 0
 2694 225 2266 0 1546 0 c 2
EndSplineSet
EndChar

StartChar: C
Encoding: 67 67 14
GlifName: C_
Width: 2877
Flags: HMW
LayerCount: 2
Fore
SplineSet
2652 3072 m 1
 2673 3072 l 1
 2673 2171 l 1
 2612 2387 2424 2705 2276 2853 c 1
 2652 3072 l 1
2673 2171 m 1
 2646 2171 l 1
 2499 2696 2146 3072 1690 3072 c 0
 1080 3072 890 2282 890 1536 c 0
 890 790 1080 0 1690 0 c 0
 2242 0 2556 409 2687 901 c 1
 2713 901 l 1
 2590 356 2234 -40 1648 -40 c 0
 734 -40 174 622 174 1536 c 0
 174 2450 734 3112 1648 3112 c 0
 2172 3112 2530 2716 2673 2171 c 1
2713 901 m 1
 2713 0 l 1
 2693 0 l 1
 2348 239 l 1
 2493 386 2662 693 2713 901 c 1
EndSplineSet
EndChar

StartChar: D
Encoding: 68 68 15
GlifName: D_
Width: 3102
Flags: HMW
LayerCount: 2
Fore
SplineSet
440 3072 m 1
 1075 3072 l 1
 1075 0 l 1
 440 0 l 1
 440 3072 l 1
1382 0 m 2
 72 0 l 1
 72 24 l 1
 1382 24 l 2
 2013 24 2222 730 2222 1536 c 0
 2222 2342 1972 3048 1382 3048 c 2
 72 3048 l 1
 72 3072 l 1
 1382 3072 l 2
 2356 3072 2938 2449 2938 1536 c 0
 2938 623 2316 0 1382 0 c 2
EndSplineSet
EndChar

StartChar: E
Encoding: 69 69 16
GlifName: E_
Width: 2570
Flags: HMW
LayerCount: 2
Fore
SplineSet
2422 922 m 1
 2448 922 l 1
 2448 0 l 1
 72 0 l 1
 72 24 l 1
 1506 24 l 2
 2068 24 2361 402 2422 922 c 1
440 3072 m 1
 1075 3072 l 1
 1075 0 l 1
 440 0 l 1
 440 3072 l 1
72 3072 m 1
 2406 3072 l 1
 2406 2232 l 1
 2382 2232 l 1
 2321 2670 2026 3048 1546 3048 c 2
 72 3048 l 1
 72 3072 l 1
1746 1078 m 1
 1685 1352 1452 1576 1218 1576 c 2
 932 1576 l 1
 932 1602 l 1
 1218 1602 l 2
 1452 1602 1685 1806 1746 2080 c 1
 1772 2080 l 1
 1772 1078 l 1
 1746 1078 l 1
EndSplineSet
EndChar

StartChar: F
Encoding: 70 70 17
GlifName: F_
Width: 2467
Flags: HMW
LayerCount: 2
Fore
SplineSet
72 3072 m 1
 2344 3072 l 1
 2344 2232 l 1
 2320 2232 l 1
 2259 2670 2004 3048 1546 3048 c 2
 72 3048 l 1
 72 3072 l 1
72 24 m 1
 1484 24 l 1
 1484 0 l 1
 72 0 l 1
 72 24 l 1
440 3072 m 1
 1075 3072 l 1
 1075 0 l 1
 440 0 l 1
 440 3072 l 1
1747 1016 m 1
 1686 1290 1493 1516 1178 1516 c 2
 911 1516 l 1
 911 1540 l 1
 1178 1540 l 2
 1493 1540 1686 1746 1747 2020 c 1
 1772 2020 l 1
 1772 1016 l 1
 1747 1016 l 1
EndSplineSet
EndChar

StartChar: G
Encoding: 71 71 18
GlifName: G_
Width: 3102
Flags: HMW
LayerCount: 2
Fore
SplineSet
2755 2171 m 1
 2667 2481 2468 2740 2314 2869 c 1
 2734 3072 l 1
 2755 3072 l 1
 2755 2171 l 1
1751 1180 m 1
 3062 1180 l 1
 3062 1156 l 1
 1751 1156 l 1
 1751 1180 l 1
2181 1164 m 1
 2857 1164 l 1
 2857 635 l 1
 2591 356 2296 -40 1628 -40 c 0
 715 -40 174 582 174 1536 c 0
 174 2490 858 3112 1690 3112 c 0
 2214 3112 2673 2675 2755 2171 c 1
 2730 2171 l 1
 2644 2607 2233 3070 1743 3070 c 0
 1133 3070 890 2282 890 1536 c 0
 890 790 1038 -12 1628 -12 c 0
 1972 -12 2119 340 2181 512 c 1
 2181 1164 l 1
EndSplineSet
EndChar

StartChar: H
Encoding: 72 72 19
GlifName: H_
Width: 3245
Flags: HMW
LayerCount: 2
Fore
SplineSet
993 1528 m 1
 2262 1528 l 1
 2262 1504 l 1
 993 1504 l 1
 993 1528 l 1
1813 24 m 1
 3184 24 l 1
 3184 0 l 1
 1813 0 l 1
 1813 24 l 1
72 24 m 1
 1444 24 l 1
 1444 0 l 1
 72 0 l 1
 72 24 l 1
1813 3072 m 1
 3184 3072 l 1
 3184 3048 l 1
 1813 3048 l 1
 1813 3072 l 1
72 3072 m 1
 1444 3072 l 1
 1444 3048 l 1
 72 3048 l 1
 72 3072 l 1
2180 3072 m 1
 2816 3072 l 1
 2816 0 l 1
 2180 0 l 1
 2180 3072 l 1
440 3072 m 1
 1075 3072 l 1
 1075 0 l 1
 440 0 l 1
 440 3072 l 1
EndSplineSet
EndChar

StartChar: I
Encoding: 73 73 20
GlifName: I_
Width: 1709
Flags: HMW
LayerCount: 2
Fore
SplineSet
72 24 m 1
 1648 24 l 1
 1648 0 l 1
 72 0 l 1
 72 24 l 1
72 3072 m 1
 1648 3072 l 1
 1648 3048 l 1
 72 3048 l 1
 72 3072 l 1
522 3072 m 1
 1157 3072 l 1
 1157 0 l 1
 522 0 l 1
 522 3072 l 1
EndSplineSet
EndChar

StartChar: J
Encoding: 74 74 21
GlifName: J_
Width: 2184
Flags: HMW
LayerCount: 2
Fore
SplineSet
547 3072 m 1
 2124 3072 l 1
 2124 3048 l 1
 547 3048 l 1
 547 3072 l 1
1080 3072 m 1
 1714 3072 l 1
 1714 696 l 1
 1550 306 1330 -122 732 -122 c 0
 314 -122 50 122 50 430 c 0
 50 663 224 819 428 819 c 0
 612 819 780 683 780 454 c 0
 780 249 622 92 424 92 c 0
 301 92 203 135 168 172 c 1
 248 37 446 -98 720 -98 c 0
 1027 -98 1080 204 1080 778 c 2
 1080 3072 l 1
EndSplineSet
Substitution2: "'ss02' Style Set 2 lookup 4-1" J.alt
EndChar

StartChar: K
Encoding: 75 75 22
GlifName: K_
Width: 3143
Flags: HMW
LayerCount: 2
Fore
SplineSet
72 24 m 1
 1444 24 l 1
 1444 0 l 1
 72 0 l 1
 72 24 l 1
72 3072 m 1
 1484 3072 l 1
 1484 3048 l 1
 72 3048 l 1
 72 3072 l 1
440 3072 m 1
 1075 3072 l 1
 1075 0 l 1
 440 0 l 1
 440 3072 l 1
629 888 m 1
 592 888 l 1
 2452 3064 l 1
 2488 3064 l 1
 629 888 l 1
1648 24 m 1
 3124 24 l 1
 3124 0 l 1
 1648 0 l 1
 1648 24 l 1
2939 3048 m 1
 1956 3048 l 1
 1956 3072 l 1
 2939 3072 l 1
 2939 3048 l 1
2804 0 m 1
 2067 0 l 1
 1182 1561 l 1
 1601 2036 l 1
 2804 0 l 1
EndSplineSet
EndChar

StartChar: L
Encoding: 76 76 23
GlifName: L_
Width: 2518
Flags: HMW
LayerCount: 2
Fore
SplineSet
440 3072 m 1
 1075 3072 l 1
 1075 0 l 1
 440 0 l 1
 440 3072 l 1
72 3072 m 1
 1444 3072 l 1
 1444 3048 l 1
 72 3048 l 1
 72 3072 l 1
2438 0 m 1
 72 0 l 1
 72 24 l 1
 1496 24 l 2
 2098 24 2351 402 2412 922 c 1
 2438 922 l 1
 2438 0 l 1
EndSplineSet
EndChar

StartChar: M
Encoding: 77 77 24
GlifName: M_
Width: 3614
Flags: HMW
LayerCount: 2
Fore
SplineSet
3553 3072 m 1
 3553 3048 l 1
 3266 3048 l 1
 3266 0 l 1
 2632 0 l 1
 2632 3072 l 1
 3553 3072 l 1
92 24 m 1
 722 24 l 1
 722 0 l 1
 92 0 l 1
 92 24 l 1
2304 24 m 1
 3553 24 l 1
 3553 0 l 1
 2304 0 l 1
 2304 24 l 1
1848 876 m 1
 2620 3072 l 1
 2644 3072 l 1
 1558 -40 l 1
 1530 -40 l 1
 390 3072 l 1
 1030 3072 l 1
 1848 876 l 1
382 3048 m 1
 72 3048 l 1
 72 3072 l 1
 412 3072 l 1
 412 0 l 1
 382 0 l 1
 382 3048 l 1
EndSplineSet
EndChar

StartChar: N
Encoding: 78 78 25
GlifName: N_
Width: 3067
Flags: HMW
LayerCount: 2
Fore
SplineSet
2554 3072 m 1
 2578 3072 l 1
 2578 -40 l 1
 2542 -40 l 1
 482 3072 l 1
 1240 3072 l 1
 2554 1044 l 1
 2554 3072 l 1
2088 3072 m 1
 3008 3072 l 1
 3008 3048 l 1
 2088 3048 l 1
 2088 3072 l 1
72 24 m 1
 981 24 l 1
 981 0 l 1
 72 0 l 1
 72 24 l 1
482 3048 m 1
 72 3048 l 1
 72 3072 l 1
 510 3072 l 1
 510 0 l 1
 482 0 l 1
 482 3048 l 1
EndSplineSet
EndChar

StartChar: O
Encoding: 79 79 26
GlifName: O_
Width: 3122
Flags: HMW
LayerCount: 2
Fore
SplineSet
1566 -40 m 0
 694 -40 174 643 174 1536 c 0
 174 2429 734 3112 1566 3112 c 0
 2398 3112 2959 2429 2959 1536 c 0
 2959 643 2438 -40 1566 -40 c 0
1566 3092 m 0
 1037 3092 890 2384 890 1536 c 0
 890 688 996 -20 1566 -20 c 0
 2136 -20 2242 688 2242 1536 c 0
 2242 2384 2095 3092 1566 3092 c 0
EndSplineSet
EndChar

StartChar: P
Encoding: 80 80 27
GlifName: P_
Width: 2754
Flags: HMW
LayerCount: 2
Fore
SplineSet
440 3072 m 1
 1075 3072 l 1
 1075 0 l 1
 440 0 l 1
 440 3072 l 1
72 24 m 1
 1444 24 l 1
 1444 0 l 1
 72 0 l 1
 72 24 l 1
1485 1380 m 2
 891 1380 l 1
 891 1404 l 1
 1403 1404 l 2
 1755 1404 1916 1848 1916 2212 c 0
 1916 2576 1755 3048 1403 3048 c 2
 72 3048 l 1
 72 3072 l 1
 1485 3072 l 2
 2267 3072 2612 2744 2612 2212 c 0
 2612 1680 2267 1380 1485 1380 c 2
EndSplineSet
EndChar

StartChar: Q
Encoding: 81 81 28
GlifName: Q_
Width: 3122
Flags: HMW
LayerCount: 2
Fore
SplineSet
1566 -40 m 0
 694 -40 174 643 174 1536 c 0
 174 2429 734 3112 1566 3112 c 0
 2398 3112 2959 2429 2959 1536 c 0
 2959 643 2438 -40 1566 -40 c 0
1566 3092 m 0
 1037 3092 890 2384 890 1536 c 0
 890 688 996 -20 1566 -20 c 0
 2136 -20 2242 688 2242 1536 c 0
 2242 2384 2095 3092 1566 3092 c 0
2386 -1000 m 1
 2386 -1024 l 1
 1370 -1024 1198 -794 1198 18 c 1
 1426 -46 1695 -46 1915 18 c 1
 1915 -728 1944 -1000 2386 -1000 c 1
EndSplineSet
EndChar

StartChar: R
Encoding: 82 82 29
GlifName: R_
Width: 3040
Flags: HMW
LayerCount: 2
Fore
SplineSet
1505 1568 m 2
 808 1568 l 1
 808 1590 l 1
 1403 1590 l 2
 1797 1590 1997 1827 1997 2314 c 0
 1997 2801 1797 3048 1403 3048 c 2
 72 3048 l 1
 72 3072 l 1
 1505 3072 l 2
 2185 3072 2652 2846 2652 2314 c 0
 2652 1782 2225 1568 1505 1568 c 2
72 24 m 1
 1526 24 l 1
 1526 0 l 1
 72 0 l 1
 72 24 l 1
481 3072 m 1
 1116 3072 l 1
 1116 0 l 1
 481 0 l 1
 481 3072 l 1
3000 52 m 1
 2934 16 2750 -30 2508 -30 c 0
 1390 -30 2410 1564 1402 1564 c 2
 808 1564 l 1
 808 1576 l 1
 1730 1576 l 2
 3074 1576 2263 20 2767 20 c 0
 2853 20 2934 50 2992 74 c 1
 3000 52 l 1
EndSplineSet
Substitution2: "'ss01' Style Set 1 lookup 2-1" R.alt
EndChar

StartChar: S
Encoding: 83 83 30
GlifName: S_
Width: 2446
Flags: HMW
LayerCount: 2
Fore
SplineSet
2120 2192 m 1
 2093 2192 l 1
 1929 2748 1612 3080 1149 3080 c 0
 817 3080 645 2876 645 2593 c 0
 645 1897 2284 2064 2284 880 c 0
 2284 307 1838 -62 1260 -62 c 0
 622 -62 334 430 174 922 c 1
 200 922 l 1
 354 448 646 -32 1238 -32 c 0
 1631 -32 1870 218 1870 578 c 0
 1870 1356 214 1106 214 2294 c 0
 214 2806 648 3112 1124 3112 c 0
 1628 3112 1956 2770 2120 2192 c 1
2099 3112 m 1
 2120 3112 l 1
 2120 2192 l 1
 2040 2415 1882 2723 1734 2871 c 1
 2099 3112 l 1
194 -40 m 1
 174 -40 l 1
 174 922 l 1
 278 656 444 353 571 221 c 1
 194 -40 l 1
EndSplineSet
EndChar

StartChar: T
Encoding: 84 84 31
GlifName: T_
Width: 2774
Flags: HMW
LayerCount: 2
Fore
SplineSet
624 24 m 1
 2161 24 l 1
 2161 0 l 1
 624 0 l 1
 624 24 l 1
1075 3062 m 1
 1710 3062 l 1
 1710 0 l 1
 1075 0 l 1
 1075 3062 l 1
1976 3048 m 2
 809 3048 l 2
 371 3048 157 2609 96 2089 c 1
 72 2089 l 1
 72 3072 l 1
 2714 3072 l 1
 2714 2089 l 1
 2689 2089 l 1
 2628 2609 2414 3048 1976 3048 c 2
EndSplineSet
EndChar

StartChar: U
Encoding: 85 85 32
GlifName: U_
Width: 2959
Flags: HMW
LayerCount: 2
Fore
SplineSet
2100 3072 m 1
 2898 3072 l 1
 2898 3048 l 1
 2100 3048 l 1
 2100 3072 l 1
72 3072 m 1
 1484 3072 l 1
 1484 3048 l 1
 72 3048 l 1
 72 3072 l 1
2476 3072 m 1
 2501 3072 l 1
 2501 942 l 2
 2501 266 2214 -62 1546 -62 c 0
 776 -62 440 234 440 942 c 2
 440 3072 l 1
 1075 3072 l 1
 1075 984 l 2
 1075 444 1174 -8 1702 -8 c 0
 2173 -8 2476 282 2476 942 c 2
 2476 3072 l 1
EndSplineSet
EndChar

StartChar: V
Encoding: 86 86 33
GlifName: V_
Width: 3163
Flags: HMW
LayerCount: 2
Fore
SplineSet
3124 3048 m 1
 2222 3048 l 1
 2222 3072 l 1
 3124 3072 l 1
 3124 3048 l 1
1526 3048 m 1
 50 3048 l 1
 50 3072 l 1
 1526 3072 l 1
 1526 3048 l 1
1866 633 m 1
 2734 3072 l 1
 2764 3072 l 1
 1644 -62 l 1
 1424 -62 l 1
 338 3072 l 1
 1076 3072 l 1
 1866 633 l 1
EndSplineSet
EndChar

StartChar: W
Encoding: 87 87 34
GlifName: W_
Width: 4515
Flags: HMW
LayerCount: 2
Fore
SplineSet
2447 1946 m 1
 1698 -40 l 1
 1506 -40 l 1
 375 3072 l 1
 1096 3072 l 1
 1946 702 l 1
 2447 2026 l 1
 2447 1946 l 1
2687 1907 m 1
 2677 1958 l 1
 3092 3072 l 1
 3118 3072 l 1
 2687 1907 l 1
4476 3048 m 1
 3656 3048 l 1
 3656 3072 l 1
 4476 3072 l 1
 4476 3048 l 1
2348 3072 m 1
 3192 702 l 1
 4080 3072 l 1
 4106 3072 l 1
 2949 -40 l 1
 2820 -40 l 1
 1688 3072 l 1
 2348 3072 l 1
3472 3048 m 1
 50 3048 l 1
 50 3072 l 1
 3472 3072 l 1
 3472 3048 l 1
EndSplineSet
EndChar

StartChar: X
Encoding: 88 88 35
GlifName: X_
Width: 3245
Flags: HMW
LayerCount: 2
Fore
SplineSet
1643 1544 m 1
 1606 1544 l 1
 2570 3064 l 1
 2599 3064 l 1
 1643 1544 l 1
518 0 m 1
 482 0 l 1
 1612 1708 l 1
 1648 1708 l 1
 518 0 l 1
1812 24 m 1
 3205 24 l 1
 3205 0 l 1
 1812 0 l 1
 1812 24 l 1
50 24 m 1
 1034 24 l 1
 1034 0 l 1
 50 0 l 1
 50 24 l 1
1587 3048 m 1
 194 3048 l 1
 194 3072 l 1
 1587 3072 l 1
 1587 3048 l 1
2980 3048 m 1
 2078 3048 l 1
 2078 3072 l 1
 2980 3072 l 1
 2980 3048 l 1
2942 0 m 1
 2206 0 l 1
 440 3072 l 1
 1161 3072 l 1
 2942 0 l 1
EndSplineSet
EndChar

StartChar: Y
Encoding: 89 89 36
GlifName: Y_
Width: 3020
Flags: HMW
LayerCount: 2
Fore
SplineSet
2980 3048 m 1
 2120 3048 l 1
 2120 3072 l 1
 2980 3072 l 1
 2980 3048 l 1
1484 3048 m 1
 50 3048 l 1
 50 3072 l 1
 1484 3072 l 1
 1484 3048 l 1
870 24 m 1
 2284 24 l 1
 2284 0 l 1
 870 0 l 1
 870 24 l 1
1860 1600 m 1
 2601 3064 l 1
 2634 3064 l 1
 1874 1568 l 1
 1874 0 l 1
 1240 0 l 1
 1240 1474 l 1
 313 3072 l 1
 1050 3072 l 1
 1860 1600 l 1
EndSplineSet
EndChar

StartChar: Z
Encoding: 90 90 37
GlifName: Z_
Width: 2528
Flags: HMW
LayerCount: 2
Fore
SplineSet
132 3072 m 1
 2344 3072 l 1
 2344 3048 l 1
 768 24 l 1
 1526 24 l 2
 2088 24 2279 320 2361 840 c 1
 2386 840 l 1
 2386 0 l 1
 50 0 l 1
 50 24 l 1
 1628 3048 l 1
 994 3048 l 2
 432 3048 240 2752 158 2314 c 1
 132 2314 l 1
 132 3072 l 1
EndSplineSet
EndChar

StartChar: a
Encoding: 97 97 38
GlifName: a
Width: 2363
VWidth: 4730
Flags: HMW
LayerCount: 2
Fore
SplineSet
2363 258 m 1
 2269 54 2057 -40 1819 -40 c 0
 1565 -40 1340 42 1340 320 c 2
 1340 1250 l 2
 1340 1565 1259 1882 952 1882 c 0
 735 1882 551 1797 477 1727 c 1
 735 1823 950 1678 950 1486 c 0
 950 1302 770 1192 606 1192 c 0
 422 1192 290 1310 290 1478 c 0
 290 1742 647 1916 1061 1916 c 0
 1737 1916 1913 1623 1913 1250 c 2
 1913 194 l 2
 1913 104 1964 46 2062 46 c 0
 2130 46 2261 102 2343 266 c 1
 2363 258 l 1
1044 1040 m 2
 1552 1040 l 1
 1552 1016 l 1
 1188 1016 l 2
 938 1016 770 786 770 516 c 0
 770 274 854 134 1002 134 c 0
 1166 134 1340 279 1340 742 c 1
 1360 742 l 1
 1360 234 1154 -40 700 -40 c 0
 376 -40 147 158 147 462 c 0
 147 806 446 1040 1044 1040 c 2
EndSplineSet
EndChar

StartChar: b
Encoding: 98 98 39
GlifName: b
Width: 2538
VWidth: 4730
Flags: HMW
LayerCount: 2
Fore
SplineSet
891 942 m 0
 891 1564 1120 1922 1548 1922 c 0
 1994 1922 2417 1556 2417 942 c 0
 2417 328 1994 -40 1548 -40 c 0
 1122 -40 891 320 891 942 c 0
910 942 m 0
 910 328 1165 24 1419 24 c 0
 1661 24 1761 352 1761 942 c 0
 1761 1532 1661 1856 1419 1856 c 0
 1165 1856 910 1556 910 942 c 0
336 3048 m 1
 66 3048 l 1
 66 3072 l 1
 910 3072 l 1
 910 0 l 1
 66 0 l 1
 66 24 l 1
 336 24 l 1
 336 3048 l 1
EndSplineSet
EndChar

StartChar: c
Encoding: 99 99 40
GlifName: c
Width: 2098
VWidth: 4730
Flags: HMW
LayerCount: 2
Fore
SplineSet
1828 1566 m 1
 1764 1742 1510 1894 1238 1894 c 0
 854 1894 803 1328 803 942 c 0
 803 476 893 8 1241 8 c 0
 1579 8 1813 246 1917 586 c 1
 1942 586 l 1
 1836 230 1597 -40 1142 -40 c 0
 544 -40 126 287 126 942 c 0
 126 1515 487 1926 1167 1926 c 0
 1605 1926 1940 1682 1940 1366 c 0
 1940 1157 1798 1040 1614 1040 c 0
 1450 1040 1278 1126 1278 1362 c 0
 1278 1566 1449 1668 1589 1668 c 0
 1710 1668 1787 1622 1828 1566 c 1
EndSplineSet
EndChar

StartChar: d
Encoding: 100 100 41
GlifName: d
Width: 2538
VWidth: 4730
Flags: HMW
LayerCount: 2
Fore
SplineSet
1654 942 m 0
 1654 320 1423 -40 995 -40 c 0
 549 -40 126 328 126 942 c 0
 126 1556 549 1922 995 1922 c 0
 1421 1922 1654 1564 1654 942 c 0
1634 942 m 0
 1634 1564 1374 1856 1124 1856 c 0
 882 1856 783 1536 783 942 c 0
 783 348 888 29 1130 29 c 0
 1380 29 1634 320 1634 942 c 0
2478 24 m 1
 2478 0 l 1
 1634 0 l 1
 1634 3048 l 1
 1364 3048 l 1
 1364 3072 l 1
 2208 3072 l 1
 2208 24 l 1
 2478 24 l 1
EndSplineSet
EndChar

StartChar: e
Encoding: 101 101 42
GlifName: e
Width: 2135
VWidth: 4730
Flags: HMW
LayerCount: 2
Fore
SplineSet
401 1056 m 1
 401 1082 l 1
 1410 1082 l 1
 1408 1434 1382 1900 1120 1900 c 0
 837 1900 762 1449 762 983 c 0
 762 455 851 2 1236 2 c 0
 1619 2 1896 252 1998 586 c 1
 2024 586 l 1
 1918 230 1629 -40 1133 -40 c 0
 555 -40 126 307 126 942 c 0
 126 1577 542 1926 1120 1926 c 0
 1730 1926 2020 1502 2020 1056 c 1
 401 1056 l 1
EndSplineSet
EndChar

StartChar: f
Encoding: 102 102 43
GlifName: f
Width: 1580
VWidth: 4730
Flags: HMW
LayerCount: 2
Fore
SplineSet
45 24 m 1
 1428 24 l 1
 1428 0 l 1
 45 0 l 1
 45 24 l 1
45 1884 m 1
 1510 1884 l 1
 1510 1860 l 1
 45 1860 l 1
 45 1884 l 1
1882 2798 m 1
 1838 2914 1700 3088 1392 3088 c 0
 1064 3088 950 2732 950 2212 c 2
 950 0 l 1
 398 0 l 1
 398 2098 l 2
 398 2676 794 3112 1388 3112 c 0
 1740 3112 1954 2880 1954 2646 c 0
 1954 2437 1822 2310 1638 2310 c 0
 1474 2310 1306 2413 1306 2616 c 0
 1306 2813 1458 2931 1626 2931 c 0
 1743 2931 1832 2878 1882 2798 c 1
EndSplineSet
EndChar

StartChar: g
Encoding: 103 103 44
GlifName: g
Width: 2514
VWidth: 4730
Flags: HMW
LayerCount: 2
Fore
SplineSet
196 270 m 0
 196 582 667 688 1024 688 c 1
 1024 676 l 1
 848 676 557 620 557 471 c 0
 557 350 748 344 974 344 c 0
 1118 344 1213 348 1327 348 c 0
 1635 348 2012 222 2012 -336 c 0
 2012 -832 1602 -1064 1048 -1064 c 0
 564 -1064 66 -921 66 -549 c 0
 66 -193 512 -114 696 -114 c 2
 721 -114 l 1
 578 -192 556 -361 556 -451 c 0
 556 -771 736 -1036 1088 -1036 c 0
 1465 -1036 1884 -882 1884 -508 c 0
 1884 -254 1601 -140 1335 -140 c 0
 1229 -140 1000 -140 910 -140 c 0
 542 -140 196 -45 196 270 c 0
762 1290 m 0
 762 946 783 690 1004 690 c 0
 1164 690 1245 946 1245 1290 c 0
 1245 1634 1164 1900 1004 1900 c 0
 844 1900 762 1634 762 1290 c 0
168 1290 m 0
 168 1740 611 1926 1004 1926 c 0
 1397 1926 1840 1740 1840 1290 c 0
 1840 840 1397 666 1004 666 c 0
 611 666 168 840 168 1290 c 0
2427 1638 m 1
 2401 1758 2291 1880 2078 1880 c 0
 1875 1880 1638 1766 1556 1410 c 1
 1536 1422 l 1
 1618 1794 1873 1904 2078 1904 c 0
 2348 1904 2474 1719 2474 1563 c 0
 2474 1338 2337 1266 2214 1266 c 0
 2091 1266 1958 1346 1958 1522 c 0
 1958 1658 2064 1766 2210 1766 c 0
 2315 1766 2407 1706 2427 1638 c 1
EndSplineSet
EndChar

StartChar: h
Encoding: 104 104 45
GlifName: h
Width: 2491
VWidth: 4730
Flags: HMW
LayerCount: 2
Fore
SplineSet
1586 1295 m 2
 1586 1639 1550 1798 1378 1798 c 0
 1002 1798 910 1296 910 914 c 1
 891 906 l 1
 891 1314 963 1926 1577 1926 c 0
 2035 1926 2159 1662 2159 1306 c 2
 2159 0 l 1
 1586 0 l 1
 1586 1295 l 2
1376 24 m 1
 2431 24 l 1
 2431 0 l 1
 1376 0 l 1
 1376 24 l 1
66 24 m 1
 1120 24 l 1
 1120 0 l 1
 66 0 l 1
 66 24 l 1
336 3048 m 1
 66 3048 l 1
 66 3072 l 1
 910 3072 l 1
 910 0 l 1
 336 0 l 1
 336 3048 l 1
EndSplineSet
EndChar

StartChar: i
Encoding: 105 105 46
GlifName: i
Width: 1254
VWidth: 4730
Flags: HMW
LayerCount: 2
Fore
SplineSet
86 24 m 1
 1202 24 l 1
 1202 0 l 1
 86 0 l 1
 86 24 l 1
254 2764 m 0
 254 2960 406 3112 602 3112 c 0
 798 3112 950 2960 950 2764 c 0
 950 2568 798 2416 602 2416 c 0
 406 2416 254 2568 254 2764 c 0
356 1860 m 1
 86 1860 l 1
 86 1884 l 1
 930 1884 l 1
 930 0 l 1
 356 0 l 1
 356 1860 l 1
EndSplineSet
EndChar

StartChar: j
Encoding: 106 106 47
GlifName: j
Width: 1285
VWidth: 4730
Flags: HMW
LayerCount: 2
Fore
SplineSet
324 2764 m 0
 324 2960 476 3112 672 3112 c 0
 868 3112 1020 2960 1020 2764 c 0
 1020 2568 868 2416 672 2416 c 0
 476 2416 324 2568 324 2764 c 0
992 1884 m 1
 992 -50 l 2
 992 -586 675 -1064 102 -1064 c 0
 -271 -1064 -524 -847 -524 -577 c 0
 -524 -370 -366 -242 -188 -242 c 0
 -24 -242 143 -340 143 -545 c 0
 143 -740 1 -856 -209 -856 c 0
 -350 -856 -442 -764 -458 -668 c 1
 -446 -848 -235 -1032 54 -1032 c 0
 484 -1032 410 -434 410 86 c 2
 418 1860 l 1
 66 1860 l 1
 66 1884 l 1
 992 1884 l 1
EndSplineSet
EndChar

StartChar: k
Encoding: 107 107 48
GlifName: k
Width: 2571
VWidth: 4730
Flags: HMW
LayerCount: 2
Fore
SplineSet
2396 0 m 1
 1688 0 l 1
 877 1090 l 1
 1991 1884 l 1
 2030 1884 l 1
 1332 1372 l 1
 2396 0 l 1
1413 24 m 1
 2552 24 l 1
 2552 0 l 1
 1413 0 l 1
 1413 24 l 1
2351 1860 m 1
 1470 1860 l 1
 1470 1884 l 1
 2351 1884 l 1
 2351 1860 l 1
66 24 m 1
 1216 24 l 1
 1216 0 l 1
 66 0 l 1
 66 24 l 1
418 3048 m 1
 66 3048 l 1
 66 3072 l 1
 992 3072 l 1
 992 0 l 1
 418 0 l 1
 418 3048 l 1
EndSplineSet
EndChar

StartChar: l
Encoding: 108 108 49
GlifName: l
Width: 1406
VWidth: 4730
Flags: HMW
LayerCount: 2
Fore
SplineSet
66 24 m 1
 1345 24 l 1
 1345 0 l 1
 66 0 l 1
 66 24 l 1
418 3048 m 1
 66 3048 l 1
 66 3072 l 1
 992 3072 l 1
 992 0 l 1
 418 0 l 1
 418 3048 l 1
EndSplineSet
EndChar

StartChar: m
Encoding: 109 109 50
GlifName: m
Width: 3577
VWidth: 4730
Flags: HMW
LayerCount: 2
Fore
SplineSet
2077 1306 m 2
 2077 0 l 1
 1504 0 l 1
 1504 1295 l 2
 1504 1639 1473 1802 1319 1802 c 0
 1009 1802 910 1318 910 914 c 1
 891 906 l 1
 891 1314 950 1926 1528 1926 c 0
 1938 1926 2077 1662 2077 1306 c 2
66 24 m 1
 1110 24 l 1
 1110 0 l 1
 66 0 l 1
 66 24 l 1
1304 24 m 1
 2277 24 l 1
 2277 0 l 1
 1304 0 l 1
 1304 24 l 1
2472 24 m 1
 3516 24 l 1
 3516 0 l 1
 2472 0 l 1
 2472 24 l 1
336 1860 m 1
 66 1860 l 1
 66 1884 l 1
 910 1884 l 1
 910 0 l 1
 336 0 l 1
 336 1860 l 1
3244 1306 m 2
 3244 0 l 1
 2670 0 l 1
 2670 1295 l 2
 2670 1639 2636 1802 2482 1802 c 0
 2168 1802 2077 1318 2077 914 c 1
 2056 906 l 1
 2056 1314 2107 1926 2691 1926 c 0
 3101 1926 3244 1662 3244 1306 c 2
EndSplineSet
EndChar

StartChar: n
Encoding: 110 110 51
GlifName: n
Width: 2491
VWidth: 4730
Flags: HMW
LayerCount: 2
Fore
SplineSet
1586 1295 m 2
 1586 1639 1550 1798 1378 1798 c 0
 1008 1798 910 1296 910 914 c 1
 891 906 l 1
 891 1314 967 1926 1577 1926 c 0
 2031 1926 2159 1662 2159 1306 c 2
 2159 0 l 1
 1586 0 l 1
 1586 1295 l 2
1376 24 m 1
 2431 24 l 1
 2431 0 l 1
 1376 0 l 1
 1376 24 l 1
66 24 m 1
 1120 24 l 1
 1120 0 l 1
 66 0 l 1
 66 24 l 1
336 1860 m 1
 66 1860 l 1
 66 1884 l 1
 910 1884 l 1
 910 0 l 1
 336 0 l 1
 336 1860 l 1
EndSplineSet
EndChar

StartChar: o
Encoding: 111 111 52
GlifName: o
Width: 2248
VWidth: 4730
Flags: HMW
LayerCount: 2
Fore
SplineSet
742 942 m 0
 742 454 823 -16 1126 -16 c 0
 1429 -16 1512 454 1512 942 c 0
 1512 1430 1429 1900 1126 1900 c 0
 823 1900 742 1430 742 942 c 0
126 942 m 0
 126 1474 507 1926 1126 1926 c 0
 1745 1926 2126 1474 2126 942 c 0
 2126 410 1745 -40 1126 -40 c 0
 507 -40 126 410 126 942 c 0
EndSplineSet
EndChar

StartChar: p
Encoding: 112 112 53
GlifName: p
Width: 2538
VWidth: 4730
Flags: HMW
LayerCount: 2
Fore
SplineSet
891 942 m 0
 891 1564 1120 1922 1548 1922 c 0
 1994 1922 2417 1556 2417 942 c 0
 2417 328 1994 -40 1548 -40 c 0
 1122 -40 891 320 891 942 c 0
910 942 m 0
 910 320 1171 24 1417 24 c 0
 1663 24 1761 360 1761 942 c 0
 1761 1524 1665 1856 1419 1856 c 0
 1169 1856 910 1564 910 942 c 0
66 -1000 m 1
 1182 -1000 l 1
 1182 -1024 l 1
 66 -1024 l 1
 66 -1000 l 1
336 1860 m 1
 66 1860 l 1
 66 1884 l 1
 910 1884 l 1
 910 -1024 l 1
 336 -1024 l 1
 336 1860 l 1
EndSplineSet
EndChar

StartChar: q
Encoding: 113 113 54
GlifName: q
Width: 2538
VWidth: 4730
Flags: HMW
LayerCount: 2
Fore
SplineSet
1654 942 m 0
 1654 320 1423 -40 995 -40 c 0
 549 -40 126 328 126 942 c 0
 126 1556 549 1922 995 1922 c 0
 1421 1922 1654 1564 1654 942 c 0
1634 942 m 0
 1634 1564 1374 1856 1124 1856 c 0
 882 1856 783 1524 783 942 c 0
 783 360 882 29 1124 29 c 0
 1384 29 1634 320 1634 942 c 0
2478 -1000 m 1
 2478 -1024 l 1
 1364 -1024 l 1
 1364 -1000 l 1
 2478 -1000 l 1
2478 1884 m 1
 2478 1860 l 1
 2208 1860 l 1
 2208 -1024 l 1
 1634 -1024 l 1
 1634 1884 l 1
 2478 1884 l 1
EndSplineSet
EndChar

StartChar: r
Encoding: 114 114 55
GlifName: r
Width: 1920
VWidth: 4730
Flags: HMW
LayerCount: 2
Fore
SplineSet
1817 1647 m 1
 1763 1809 1594 1900 1438 1900 c 0
 961 1900 910 1364 910 914 c 1
 891 914 l 1
 891 1414 946 1926 1442 1926 c 0
 1671 1926 1900 1752 1900 1490 c 0
 1900 1300 1778 1138 1561 1138 c 0
 1365 1138 1216 1263 1216 1466 c 0
 1216 1782 1637 1911 1817 1647 c 1
66 24 m 1
 1182 24 l 1
 1182 0 l 1
 66 0 l 1
 66 24 l 1
336 1860 m 1
 66 1860 l 1
 66 1884 l 1
 910 1884 l 1
 910 0 l 1
 336 0 l 1
 336 1860 l 1
EndSplineSet
EndChar

StartChar: s
Encoding: 115 115 56
GlifName: s
Width: 1806
VWidth: 4730
Flags: HMW
LayerCount: 2
Fore
SplineSet
1478 1524 m 1
 1434 1594 1345 1696 1293 1744 c 1
 1540 1926 l 1
 1560 1926 l 1
 1560 1352 l 1
 1540 1352 l 1
 1526 1405 1507 1474 1478 1524 c 1
1556 1352 m 1
 1536 1352 l 1
 1450 1606 1216 1896 834 1896 c 0
 618 1896 458 1792 458 1626 c 0
 458 1196 1704 1372 1704 602 c 0
 1704 176 1338 -40 962 -40 c 0
 556 -40 262 214 160 594 c 1
 180 594 l 1
 290 230 579 -14 946 -14 c 0
 1204 -14 1401 92 1401 302 c 0
 1401 748 196 528 196 1331 c 0
 196 1655 442 1922 832 1922 c 0
 1234 1922 1474 1622 1556 1352 c 1
176 -40 m 1
 156 -40 l 1
 156 594 l 1
 180 594 l 1
 196 504 217 455 242 398 c 1
 294 314 384 204 430 164 c 1
 176 -40 l 1
EndSplineSet
EndChar

StartChar: t
Encoding: 116 116 57
GlifName: t
Width: 1466
VWidth: 4730
Flags: HMW
LayerCount: 2
Fore
SplineSet
24 1884 m 1
 1336 1884 l 1
 1336 1860 l 1
 24 1860 l 1
 24 1884 l 1
1458 418 m 1
 1360 156 1130 -28 798 -28 c 0
 401 -28 324 190 324 476 c 2
 324 2294 l 1
 508 2294 755 2334 898 2416 c 1
 898 354 l 2
 898 150 942 72 1052 72 c 0
 1182 72 1352 208 1438 426 c 1
 1458 418 l 1
EndSplineSet
EndChar

StartChar: u
Encoding: 117 117 58
GlifName: u
Width: 2491
VWidth: 4730
Flags: HMW
LayerCount: 2
Fore
SplineSet
910 1884 m 1
 910 590 l 2
 910 246 946 86 1118 86 c 0
 1488 86 1586 588 1586 970 c 1
 1606 978 l 1
 1606 570 1528 -40 918 -40 c 0
 464 -40 336 222 336 578 c 2
 336 1860 l 1
 66 1860 l 1
 66 1884 l 1
 910 1884 l 1
2159 24 m 1
 2431 24 l 1
 2431 0 l 1
 1586 0 l 1
 1586 1860 l 1
 1320 1860 l 1
 1320 1884 l 1
 2159 1884 l 1
 2159 24 l 1
EndSplineSet
EndChar

StartChar: v
Encoding: 118 118 59
GlifName: v
Width: 2315
VWidth: 4730
Flags: HMW
LayerCount: 2
Fore
SplineSet
2312 1860 m 1
 1548 1860 l 1
 1548 1884 l 1
 2312 1884 l 1
 2312 1860 l 1
1194 1860 m 1
 -8 1860 l 1
 -8 1884 l 1
 1194 1884 l 1
 1194 1860 l 1
1384 492 m 1
 1948 1884 l 1
 1982 1884 l 1
 1202 -40 l 1
 1032 -40 l 1
 242 1884 l 1
 876 1884 l 1
 1384 492 l 1
EndSplineSet
EndChar

StartChar: w
Encoding: 119 119 60
GlifName: w
Width: 3343
VWidth: 4730
Flags: HMW
LayerCount: 2
Fore
SplineSet
1214 1860 m 1
 -8 1860 l 1
 -8 1884 l 1
 1214 1884 l 1
 1214 1860 l 1
3340 1860 m 1
 2494 1860 l 1
 2494 1884 l 1
 3340 1884 l 1
 3340 1860 l 1
1244 528 m 1
 1815 1926 l 1
 2106 1926 l 1
 2504 614 l 1
 2927 1884 l 1
 2957 1884 l 1
 2314 -40 l 1
 2142 -40 l 1
 1620 1374 l 1
 1040 -40 l 1
 868 -40 l 1
 242 1884 l 1
 852 1884 l 1
 1244 528 l 1
EndSplineSet
EndChar

StartChar: x
Encoding: 120 120 61
GlifName: x
Width: 2321
VWidth: 4730
Flags: HMW
LayerCount: 2
Fore
SplineSet
1168 24 m 1
 2292 24 l 1
 2292 0 l 1
 1168 0 l 1
 1168 24 l 1
32 24 m 1
 780 24 l 1
 780 0 l 1
 32 0 l 1
 32 24 l 1
1214 1860 m 1
 53 1860 l 1
 53 1884 l 1
 1214 1884 l 1
 1214 1860 l 1
2240 1860 m 1
 1534 1860 l 1
 1534 1884 l 1
 2240 1884 l 1
 2240 1860 l 1
2122 0 m 1
 1446 0 l 1
 262 1884 l 1
 918 1884 l 1
 2122 0 l 1
336 0 m 1
 302 0 l 1
 1895 1884 l 1
 1932 1884 l 1
 336 0 l 1
EndSplineSet
EndChar

StartChar: y
Encoding: 121 121 62
GlifName: y
Width: 2399
VWidth: 4730
Flags: HMW
LayerCount: 2
Fore
SplineSet
1300 1860 m 1
 -29 1860 l 1
 -29 1884 l 1
 1300 1884 l 1
 1300 1860 l 1
2451 1860 m 1
 1720 1860 l 1
 1720 1884 l 1
 2451 1884 l 1
 2451 1860 l 1
1560 566 m 1
 1238 -100 l 1
 218 1884 l 1
 893 1884 l 1
 1560 566 l 1
916 -786 m 1
 2138 1884 l 1
 2173 1884 l 1
 942 -788 l 2
 868 -944 770 -1054 594 -1054 c 0
 430 -1054 274 -946 274 -749 c 0
 274 -573 410 -426 602 -426 c 0
 780 -426 931 -580 916 -786 c 1
EndSplineSet
EndChar

StartChar: z
Encoding: 122 122 63
GlifName: z
Width: 1929
VWidth: 4730
Flags: HMW
LayerCount: 2
Fore
SplineSet
827 1860 m 2
 441 1860 245 1594 184 1180 c 1
 160 1180 l 1
 160 1884 l 1
 1802 1884 l 1
 1802 1860 l 1
 692 24 l 1
 1106 24 l 2
 1586 24 1782 246 1843 754 c 1
 1868 754 l 1
 1868 0 l 1
 45 0 l 1
 45 24 l 1
 1151 1860 l 1
 827 1860 l 2
EndSplineSet
EndChar

StartChar: comma
Encoding: 44 44 65
GlifName: comma
Width: 1126
Flags: HMW
LayerCount: 2
Fore
SplineSet
164 324 m 0
 164 520 344 688 561 688 c 0
 782 688 970 499 970 139 c 0
 970 -271 648 -624 156 -624 c 1
 156 -600 l 1
 627 -600 1022 -248 924 317 c 1
 894 133 743 -40 531 -40 c 0
 302 -40 164 128 164 324 c 0
EndSplineSet
EndChar

StartChar: exclam
Encoding: 33 33 67
GlifName: exclam
Width: 1556
Flags: HMW
LayerCount: 2
Fore
SplineSet
1138 2618 m 0
 1092 2020 787 1569 787 1057 c 1
 762 1057 l 1
 762 1569 456 2020 410 2618 c 0
 408 2646 410 2672 410 2696 c 0
 410 2925 520 3104 774 3104 c 0
 1028 3104 1142 2925 1142 2696 c 0
 1142 2672 1140 2646 1138 2618 c 0
EndSplineSet
Refer: 1 46 N 1 0 0 1 246 0 2
EndChar

StartChar: quotesingle
Encoding: 39 39 70
GlifName: quotesingle
Width: 1064
Flags: HMW
LayerCount: 2
Fore
SplineSet
856 2708 m 24
 810 2400 545 2306 545 1856 c 1
 520 1856 l 1
 520 2306 254 2400 208 2708 c 24
 204 2736 204 2758 204 2782 c 0
 204 2983 353 3112 533 3112 c 0
 713 3112 860 2983 860 2782 c 0
 860 2758 860 2736 856 2708 c 24
EndSplineSet
EndChar

StartChar: question
Encoding: 63 63 75
GlifName: question
Width: 2395
Flags: HMW
LayerCount: 2
Fore
SplineSet
1020 1467 m 1
 1397 1577 1532 1914 1532 2294 c 0
 1532 2680 1480 3072 1074 3072 c 0
 667 3072 340 2746 304 2514 c 1
 326 2572 428 2662 580 2662 c 0
 760 2662 918 2549 918 2355 c 0
 918 2140 766 2024 582 2024 c 0
 378 2024 246 2161 246 2380 c 0
 246 2736 632 3112 1172 3112 c 0
 1791 3112 2191 2786 2191 2294 c 0
 2191 1822 1724 1486 1044 1450 c 1
 1044 999 l 1
 1020 999 l 1
 1020 1467 l 1
EndSplineSet
Refer: 1 46 N 1 0 0 1 569 0 2
EndChar

StartChar: parenleft
Encoding: 40 40 76
GlifName: parenleft
Width: 1523
Flags: HMW
LayerCount: 2
Fore
SplineSet
1458 -678 m 1
 1446 -696 l 1
 778 -410 266 378 266 1332 c 0
 266 2286 778 2990 1446 3276 c 1
 1458 3258 l 1
 1052 2992 900 2118 900 1332 c 0
 900 546 1052 -412 1458 -678 c 1
EndSplineSet
EndChar

StartChar: at
Encoding: 64 64 79
GlifName: at
Width: 4136
VWidth: 4730
Flags: HMW
LayerCount: 2
Fore
SplineSet
2382 1462 m 0
 2382 831 2089 286 1618 286 c 0
 1270 286 1000 516 1000 942 c 0
 1000 1556 1448 2166 1948 2166 c 0
 2317 2166 2382 1798 2382 1462 c 0
2360 1418 m 0
 2360 1590 2349 2013 2136 2013 c 0
 1916 2013 1658 1459 1658 951 c 0
 1658 677 1720 443 1868 443 c 0
 2101 443 2360 910 2360 1418 c 0
2274 860 m 2
 2568 2130 l 1
 3182 2130 l 1
 2882 836 l 2
 2853 710 2730 354 2980 354 c 0
 3463 354 3888 950 3888 1642 c 0
 3888 2380 3416 3212 2392 3212 c 0
 1214 3212 250 2134 250 864 c 0
 250 -406 982 -852 1716 -852 c 0
 2384 -852 2846 -648 3194 -246 c 1
 3216 -262 l 1
 2872 -664 2384 -876 1716 -876 c 0
 966 -876 226 -422 226 864 c 0
 226 2146 1196 3236 2396 3236 c 0
 3432 3236 3912 2392 3912 1642 c 0
 3912 966 3531 278 2769 278 c 0
 2281 278 2216 606 2274 860 c 2
EndSplineSet
EndChar

StartChar: dollar
Encoding: 36 36 80
GlifName: dollar
Width: 2436
Flags: HMW
LayerCount: 2
Fore
SplineSet
1309 3400 m 1
 1338 3400 l 1
 1338 -328 l 1
 1309 -328 l 1
 1309 3400 l 1
987 3400 m 1
 1016 3400 l 1
 1016 -328 l 1
 987 -328 l 1
 987 3400 l 1
2100 2578 m 1
 2035 2862 1669 3082 1270 3082 c 0
 918 3082 655 2875 655 2576 c 0
 655 1847 2274 2068 2274 901 c 0
 2274 327 1851 -62 1212 -62 c 0
 454 -62 112 328 112 635 c 0
 112 864 250 1032 471 1032 c 0
 635 1032 795 901 795 680 c 0
 795 475 608 372 448 372 c 0
 313 372 204 451 158 547 c 1
 216 297 522 -32 1188 -32 c 0
 1622 -32 1844 217 1844 578 c 0
 1844 1389 225 1085 225 2273 c 0
 225 2785 737 3112 1233 3112 c 0
 1713 3112 2151 2851 2151 2478 c 0
 2151 2249 2023 2101 1802 2101 c 0
 1638 2101 1478 2209 1478 2424 c 0
 1478 2623 1642 2740 1802 2740 c 0
 1930 2740 2044 2676 2100 2578 c 1
EndSplineSet
EndChar

StartChar: numbersign
Encoding: 35 35 81
GlifName: numbersign
Width: 2580
Flags: HMW
LayerCount: 2
Fore
SplineSet
122 1036 m 1
 2334 1036 l 1
 2334 1012 l 1
 122 1012 l 1
 122 1036 l 1
246 2122 m 1
 2458 2122 l 1
 2458 2098 l 1
 246 2098 l 1
 246 2122 l 1
1852 3088 m 1
 1876 3092 l 1
 1466 -20 l 1
 1442 -24 l 1
 1852 3088 l 1
1074 3092 m 1
 1098 3092 l 1
 688 -20 l 1
 664 -20 l 1
 1074 3092 l 1
EndSplineSet
EndChar

StartChar: slash
Encoding: 47 47 82
GlifName: slash
Width: 2128
Flags: HMW
LayerCount: 2
Fore
SplineSet
1942 3194 m 1
 1966 3194 l 1
 188 -614 l 1
 164 -614 l 1
 1942 3194 l 1
EndSplineSet
EndChar

StartChar: percent
Encoding: 37 37 83
GlifName: percent
Width: 4177
Flags: HMW
LayerCount: 2
Fore
SplineSet
2868 860 m 0
 2868 307 2934 -16 3134 -16 c 0
 3334 -16 3400 307 3400 860 c 0
 3400 1413 3334 1736 3134 1736 c 0
 2934 1736 2868 1413 2868 860 c 0
2232 860 m 0
 2232 1446 2672 1762 3134 1762 c 0
 3596 1762 4034 1446 4034 860 c 0
 4034 274 3514 -40 3134 -40 c 0
 2672 -40 2232 274 2232 860 c 0
3146 3072 m 1
 3174 3072 l 1
 1032 0 l 1
 1004 0 l 1
 3146 3072 l 1
778 2212 m 0
 778 1659 844 1336 1044 1336 c 0
 1244 1336 1310 1659 1310 2212 c 0
 1310 2765 1244 3088 1044 3088 c 0
 844 3088 778 2765 778 2212 c 0
144 2212 m 0
 144 2798 582 3112 1044 3112 c 0
 1506 3112 1946 2798 1946 2212 c 0
 1946 1626 1424 1310 1044 1310 c 0
 582 1310 144 1626 144 2212 c 0
EndSplineSet
EndChar

StartChar: hyphen
Encoding: 45 45 85
GlifName: hyphen
Width: 1474
Flags: HMW
LayerCount: 2
Fore
SplineSet
246 1138 m 1
 1228 1138 l 1
 1228 1114 l 1
 246 1114 l 1
 246 1138 l 1
EndSplineSet
EndChar

StartChar: plus
Encoding: 43 43 87
GlifName: plus
Width: 2170
Flags: HMW
LayerCount: 2
Fore
SplineSet
1074 450 m 1
 1074 2130 l 1
 1098 2130 l 1
 1098 450 l 1
 1074 450 l 1
246 1306 m 1
 1926 1306 l 1
 1926 1282 l 1
 246 1282 l 1
 246 1306 l 1
EndSplineSet
EndChar

StartChar: less
Encoding: 60 60 89
GlifName: less
Width: 2292
Flags: HMW
LayerCount: 2
Fore
SplineSet
246 1576 m 1
 246 1602 l 1
 2048 2458 l 1
 2048 2434 l 1
 246 1576 l 1
246 1572 m 1
 246 1598 l 1
 2048 742 l 1
 2048 716 l 1
 246 1572 l 1
EndSplineSet
EndChar

StartChar: backslash
Encoding: 92 92 91
GlifName: backslash
Width: 2128
Flags: HMW
LayerCount: 2
Fore
SplineSet
192 3194 m 1
 1966 -614 l 1
 1938 -614 l 1
 164 3194 l 1
 192 3194 l 1
EndSplineSet
EndChar

StartChar: bracketleft
Encoding: 91 91 92
GlifName: bracketleft
Width: 1453
Flags: HMW
LayerCount: 2
Fore
SplineSet
1331 -614 m 1
 226 -614 l 1
 226 -590 l 1
 1331 -590 l 1
 1331 -614 l 1
1331 3170 m 1
 226 3170 l 1
 226 3194 l 1
 1331 3194 l 1
 1331 3170 l 1
840 3194 m 1
 840 -614 l 1
 226 -614 l 1
 226 3194 l 1
 840 3194 l 1
EndSplineSet
EndChar

StartChar: braceleft
Encoding: 123 123 93
GlifName: braceleft
Width: 1359
VWidth: 4730
Flags: HMW
LayerCount: 2
Fore
SplineSet
1236 3194 m 1
 1236 3170 l 1
 982 3170 852 2908 852 2650 c 0
 852 2380 990 2195 990 1826 c 0
 990 1486 774 1368 226 1286 c 1
 226 1306 l 1
 348 1346 472 1454 472 1622 c 0
 472 1880 226 2065 226 2585 c 0
 226 2991 458 3194 1236 3194 c 1
1236 -614 m 1
 458 -614 226 -406 226 -0 c 0
 226 520 472 704 472 962 c 0
 472 1130 348 1238 226 1278 c 1
 226 1298 l 1
 774 1216 990 1098 990 758 c 0
 990 389 852 204 852 -66 c 0
 852 -324 982 -590 1236 -590 c 1
 1236 -614 l 1
EndSplineSet
EndChar

StartChar: bar
Encoding: 124 124 96
GlifName: bar
Width: 942
VWidth: 4730
Flags: HMW
LayerCount: 2
Fore
SplineSet
458 3194 m 1
 484 3194 l 1
 484 -1024 l 1
 458 -1024 l 1
 458 3194 l 1
EndSplineSet
EndChar

StartChar: cent
Encoding: 162 162 98
GlifName: cent
Width: 2098
VWidth: 4730
Flags: HMW
LayerCount: 2
Fore
SplineSet
1174 2274 m 1
 1174 -348 l 1
 1150 -348 l 1
 1150 2274 l 1
 1174 2274 l 1
EndSplineSet
Refer: 40 99 N 1 0 0 1 0 0 2
EndChar

StartChar: sterling
Encoding: 163 163 99
GlifName: sterling
Width: 2686
VWidth: 4730
Flags: HMW
LayerCount: 2
Fore
SplineSet
2589 888 m 1
 2589 89 2298 -122 1830 -122 c 0
 1268 -122 1024 122 766 122 c 0
 598 122 364 40 324 -82 c 1
 308 -82 l 1
 369 222 713 642 1114 642 c 0
 1483 642 1663 504 1933 504 c 0
 2224 504 2564 552 2564 888 c 1
 2589 888 l 1
1904 1644 m 1
 1904 1620 l 1
 62 1620 l 1
 62 1644 l 1
 1904 1644 l 1
402 2252 m 0
 402 2826 852 3112 1572 3112 c 0
 2236 3112 2588 2726 2588 2390 c 0
 2588 2161 2436 2002 2242 2002 c 0
 2058 2002 1868 2131 1868 2356 c 0
 1868 2560 2044 2703 2224 2703 c 0
 2390 2703 2478 2598 2513 2542 c 1
 2445 2796 2151 3070 1662 3070 c 0
 1236 3070 1102 2740 1102 2396 c 0
 1102 1990 1332 1802 1332 1454 c 0
 1332 696 266 696 320 -82 c 1
 294 -82 l 1
 216 488 734 808 734 1070 c 0
 734 1536 402 1780 402 2252 c 0
EndSplineSet
EndChar

StartChar: section
Encoding: 167 167 101
GlifName: section
Width: 1951
VWidth: 4730
Flags: HMW
LayerCount: 2
Fore
SplineSet
553 2669 m 0
 553 2215 1792 2214 1792 1588 c 0
 1792 1293 1562 1189 1362 1063 c 1
 1319 1076 l 1
 1413 1154 1504 1203 1504 1337 c 0
 1504 1791 274 1703 274 2449 c 0
 274 2875 632 3112 1022 3112 c 0
 1362 3112 1775 2976 1775 2542 c 0
 1775 2354 1652 2206 1468 2206 c 0
 1304 2206 1186 2328 1186 2496 c 0
 1186 2648 1320 2777 1480 2777 c 0
 1574 2777 1651 2732 1684 2695 c 1
 1612 2931 1329 3060 1022 3060 c 0
 787 3060 553 2885 553 2669 c 0
1788 664 m 0
 1788 238 1450 -40 938 -40 c 0
 578 -40 122 103 122 537 c 0
 122 725 246 872 430 872 c 0
 594 872 713 750 713 582 c 0
 713 430 582 309 422 309 c 0
 312 309 235 368 213 405 c 1
 279 143 614 12 938 12 c 0
 1319 12 1479 238 1479 414 c 0
 1479 868 197 828 197 1434 c 0
 197 1750 438 1922 598 2028 c 1
 649 2028 l 1
 600 1978 510 1882 510 1745 c 0
 510 1291 1788 1410 1788 664 c 0
EndSplineSet
EndChar

StartChar: asciitilde
Encoding: 126 126 104
GlifName: asciitilde
Width: 2818
VWidth: 4730
Flags: HMW
LayerCount: 2
Fore
SplineSet
835 1729 m 0
 617 1729 434 1638 434 1404 c 1
 410 1404 l 1
 410 1876 655 2150 1020 2150 c 0
 1470 2150 1532 1765 1942 1765 c 0
 2200 1765 2384 1854 2384 2088 c 1
 2408 2088 l 1
 2408 1616 2163 1344 1798 1344 c 0
 1278 1344 1273 1729 835 1729 c 0
EndSplineSet
EndChar

StartChar: copyright
Encoding: 169 169 105
GlifName: copyright
Width: 3562
Flags: HMW
LayerCount: 2
Fore
SplineSet
204 1536 m 0
 204 2408 910 3112 1782 3112 c 0
 2654 3112 3358 2408 3358 1536 c 0
 3358 664 2654 -40 1782 -40 c 0
 910 -40 204 664 204 1536 c 0
230 1536 m 0
 230 680 926 -16 1782 -16 c 0
 2638 -16 3334 680 3334 1536 c 0
 3334 2392 2638 3088 1782 3088 c 0
 926 3088 230 2392 230 1536 c 0
EndSplineSet
Refer: 14 67 N 0.6 0 0 0.6 827 614 2
EndChar

StartChar: registered
Encoding: 174 174 106
GlifName: registered
Width: 3562
Flags: HMW
LayerCount: 2
Fore
SplineSet
204 1536 m 0
 204 2408 910 3112 1782 3112 c 0
 2654 3112 3358 2408 3358 1536 c 0
 3358 664 2654 -40 1782 -40 c 0
 910 -40 204 664 204 1536 c 0
230 1536 m 0
 230 680 926 -16 1782 -16 c 0
 2638 -16 3334 680 3334 1536 c 0
 3334 2392 2638 3088 1782 3088 c 0
 926 3088 230 2392 230 1536 c 0
EndSplineSet
Refer: 29 82 N 0.6 0 0 0.6 914 606 2
EndChar

StartChar: logicalnot
Encoding: 172 172 107
GlifName: logicalnot
Width: 1990
Flags: HMW
LayerCount: 2
Fore
SplineSet
1720 2494 m 1
 246 2494 l 1
 246 2520 l 1
 1744 2520 l 1
 1744 1692 l 1
 1720 1692 l 1
 1720 2494 l 1
EndSplineSet
EndChar

StartChar: guillemotleft
Encoding: 171 171 108
GlifName: guillemotleft
Width: 2969
Flags: HMW
LayerCount: 2
Fore
SplineSet
2010 1590 m 1
 2736 606 l 1
 2724 594 l 1
 1250 1552 l 1
 1250 1622 l 1
 2724 2580 l 1
 2736 2568 l 1
 2010 1590 l 1
823 1590 m 1
 1589 606 l 1
 1577 594 l 1
 102 1552 l 1
 102 1622 l 1
 1577 2580 l 1
 1589 2568 l 1
 823 1590 l 1
EndSplineSet
EndChar

StartChar: mu
Encoding: 181 181 111
GlifName: mu
Width: 2378
VWidth: 4730
Flags: HMW
LayerCount: 2
Fore
SplineSet
1042 -504 m 0
 1178 -504 1284 -622 1284 -778 c 0
 1284 -938 1198 -1064 898 -1064 c 0
 612 -1064 366 -864 366 -496 c 2
 366 1314 l 1
 389 1314 l 1
 389 -496 l 2
 389 -852 626 -1068 970 -1036 c 1
 970 -1036 l 1
 868 -990 798 -894 798 -754 c 0
 798 -618 906 -504 1042 -504 c 0
EndSplineSet
Refer: 58 117 N 1 0 0 1 0 0 2
EndChar

StartChar: asciicircum
Encoding: 94 94 113
GlifName: asciicircum
Width: 2232
Flags: HMW
LayerCount: 2
Fore
SplineSet
1114 2962 m 1
 426 2568 l 1
 410 2580 l 1
 984 3154 l 1
 1250 3154 l 1
 1822 2580 l 1
 1806 2568 l 1
 1114 2962 l 1
EndSplineSet
EndChar

StartChar: degree
Encoding: 176 176 115
GlifName: degree
Width: 1310
Flags: HMW
LayerCount: 2
Fore
SplineSet
164 2786 m 0
 164 3056 386 3276 656 3276 c 0
 926 3276 1146 3056 1146 2786 c 0
 1146 2516 926 2294 656 2294 c 0
 386 2294 164 2516 164 2786 c 0
278 2786 m 0
 278 2568 438 2408 656 2408 c 0
 874 2408 1032 2568 1032 2786 c 0
 1032 3004 874 3162 656 3162 c 0
 438 3162 278 3004 278 2786 c 0
EndSplineSet
EndChar

StartChar: onequarter
Encoding: 188 188 119
GlifName: onequarter
Width: 2747
Flags: HMW
LayerCount: 2
Fore
SplineSet
2130 2662 m 1
 2154 2662 l 1
 188 -410 l 1
 164 -410 l 1
 2130 2662 l 1
EndSplineSet
Refer: 6 52 N 0.6 0 0 0.6 1106 -422 2
Refer: 3 49 N 0.6 0 0 0.6 -33 1458 2
EndChar

StartChar: onehalf
Encoding: 189 189 120
GlifName: onehalf
Width: 2867
Flags: HMW
LayerCount: 2
Fore
SplineSet
2130 2662 m 1
 2154 2662 l 1
 188 -410 l 1
 164 -410 l 1
 2130 2662 l 1
EndSplineSet
Refer: 4 50 N 0.6 0 0 0.6 1397 -414 2
Refer: 3 49 N 0.6 0 0 0.6 -33 1458 2
EndChar

StartChar: threequarters
Encoding: 190 190 121
GlifName: threequarters
Width: 2993
Flags: HMW
LayerCount: 2
Fore
SplineSet
2376 2662 m 1
 2400 2662 l 1
 434 -410 l 1
 410 -410 l 1
 2376 2662 l 1
EndSplineSet
Refer: 5 51 N 0.6 0 0 0.6 20 1450 2
Refer: 6 52 N 0.6 0 0 0.6 1352 -422 2
EndChar

StartChar: grave
Encoding: 96 96 123
GlifName: grave
Width: 1678
Flags: HMW
LayerCount: 2
Fore
SplineSet
492 2868 m 2
 353 2850 226 2953 226 3092 c 0
 226 3231 373 3370 533 3310 c 2
 1444 2982 l 1
 1434 2958 l 1
 492 2868 l 2
EndSplineSet
EndChar

StartChar: acute
Encoding: 180 180 124
GlifName: acute
Width: 1678
Flags: HMW
LayerCount: 2
Fore
SplineSet
1188 2868 m 2
 246 2958 l 1
 236 2982 l 1
 1147 3310 l 2
 1307 3370 1454 3231 1454 3092 c 0
 1454 2953 1327 2850 1188 2868 c 2
EndSplineSet
EndChar

StartChar: cedilla
Encoding: 184 184 128
GlifName: cedilla
Width: 2252
Flags: HMW
LayerCount: 2
Fore
SplineSet
1266 -574 m 0
 1266 -356 1093 -324 888 -324 c 1
 1258 168 l 1
 1294 168 l 1
 1048 -160 l 1
 1438 -172 1720 -262 1720 -492 c 0
 1720 -696 1524 -873 905 -873 c 1
 905 -848 l 1
 1147 -848 1266 -730 1266 -574 c 0
EndSplineSet
EndChar

StartChar: divide
Encoding: 247 247 131
GlifName: divide
Width: 2497
Flags: HMW
LayerCount: 2
Fore
SplineSet
184 1630 m 1
 2313 1630 l 1
 2313 1606 l 1
 184 1606 l 1
 184 1630 l 1
880 798 m 0
 880 1000 1048 1167 1250 1167 c 0
 1452 1167 1617 1000 1617 798 c 0
 1617 596 1452 430 1250 430 c 0
 1048 430 880 596 880 798 c 0
880 2375 m 0
 880 2577 1048 2744 1250 2744 c 0
 1452 2744 1617 2577 1617 2375 c 0
 1617 2173 1452 2007 1250 2007 c 0
 1048 2007 880 2173 880 2375 c 0
EndSplineSet
EndChar

StartChar: ring
Encoding: 730 730 271
GlifName: ring
Width: 1310
VWidth: 0
Flags: HMW
LayerCount: 2
Fore
SplineSet
246 2786 m 0
 246 2994 406 3154 656 3154 c 0
 906 3154 1065 2994 1065 2786 c 0
 1065 2578 906 2416 656 2416 c 0
 406 2416 246 2578 246 2786 c 0
491 2786 m 0
 491 2577 529 2442 656 2442 c 0
 783 2442 820 2577 820 2786 c 0
 820 2995 783 3130 656 3130 c 0
 529 3130 491 2995 491 2786 c 0
EndSplineSet
EndChar

StartChar: tilde
Encoding: 732 732 272
GlifName: tilde
Width: 1834
VWidth: 0
Flags: HMW
LayerCount: 2
Fore
SplineSet
487 2679 m 0
 339 2679 230 2589 230 2437 c 1
 204 2437 l 1
 204 2785 348 3039 610 3039 c 0
 938 3039 1082 2716 1348 2716 c 0
 1512 2716 1606 2806 1606 2958 c 1
 1630 2958 l 1
 1630 2568 1569 2356 1266 2356 c 0
 951 2356 782 2679 487 2679 c 0
EndSplineSet
EndChar

StartChar: AE
Encoding: 198 198 274
GlifName: A_E_
Width: 4280
Flags: HMW
LayerCount: 2
Fore
SplineSet
2150 3072 m 1
 2180 3072 l 1
 454 0 l 1
 420 0 l 1
 2150 3072 l 1
62 24 m 1
 962 24 l 1
 962 0 l 1
 62 0 l 1
 62 24 l 1
1006 1016 m 1
 2192 1016 l 1
 2192 992 l 1
 1006 992 l 1
 1006 1016 l 1
2150 3072 m 1
 2786 3072 l 1
 2786 0 l 1
 2150 0 l 1
 2150 3072 l 1
2150 3072 m 1
 4116 3072 l 1
 4116 2232 l 1
 4092 2232 l 1
 4031 2670 3735 3048 3277 3048 c 2
 2150 3048 l 1
 2150 3072 l 1
4158 0 m 1
 1782 0 l 1
 1782 24 l 1
 3236 24 l 2
 3776 24 4073 402 4134 922 c 1
 4158 922 l 1
 4158 0 l 1
3456 1078 m 1
 3395 1352 3162 1576 2928 1576 c 2
 2683 1576 l 1
 2683 1602 l 1
 2928 1602 l 2
 3162 1602 3395 1806 3456 2080 c 1
 3482 2080 l 1
 3482 1078 l 1
 3456 1078 l 1
EndSplineSet
EndChar

StartChar: ae
Encoding: 230 230 277
GlifName: ae
Width: 3411
VWidth: 4730
Flags: HMW
LayerCount: 2
Fore
SplineSet
286 1478 m 0
 286 1742 643 1916 1057 1916 c 0
 1589 1916 1806 1623 1806 1250 c 1
 1786 742 l 1
 1786 234 1378 -40 902 -40 c 0
 455 -40 144 118 144 462 c 0
 144 806 458 1055 1040 1055 c 2
 1671 1055 l 1
 1671 1030 l 1
 1184 1030 l 2
 934 1030 766 788 766 493 c 0
 766 219 858 -8 1022 -8 c 0
 1194 -8 1335 265 1335 638 c 2
 1335 1250 l 2
 1335 1524 1276 1882 948 1882 c 0
 749 1882 545 1802 453 1710 c 1
 713 1825 946 1678 946 1486 c 0
 946 1302 766 1192 602 1192 c 0
 418 1192 286 1310 286 1478 c 0
2698 1066 m 1
 2694 1435 2668 1900 2406 1900 c 0
 2123 1900 2048 1449 2048 983 c 0
 2048 517 2130 0 2519 0 c 0
 2909 0 3183 248 3285 586 c 1
 3310 586 l 1
 3204 230 2914 -40 2418 -40 c 0
 1902 -40 1536 307 1536 942 c 0
 1536 1577 1890 1926 2406 1926 c 0
 3016 1926 3306 1486 3306 1040 c 1
 1822 1040 l 1
 1822 1066 l 1
 2698 1066 l 1
EndSplineSet
EndChar

StartChar: perthousand
Encoding: 8240 8240 285
GlifName: perthousand
Width: 6184
Flags: HMW
LayerCount: 2
Fore
SplineSet
4874 860 m 0
 4874 307 4940 -16 5140 -16 c 0
 5340 -16 5406 307 5406 860 c 0
 5406 1413 5340 1736 5140 1736 c 0
 4940 1736 4874 1413 4874 860 c 0
4240 860 m 0
 4240 1446 4678 1762 5140 1762 c 0
 5602 1762 6042 1446 6042 860 c 0
 6042 274 5520 -40 5140 -40 c 0
 4678 -40 4240 274 4240 860 c 0
2868 860 m 0
 2868 307 2934 -16 3134 -16 c 0
 3334 -16 3400 307 3400 860 c 0
 3400 1413 3334 1736 3134 1736 c 0
 2934 1736 2868 1413 2868 860 c 0
2232 860 m 0
 2232 1446 2672 1762 3134 1762 c 0
 3596 1762 4034 1446 4034 860 c 0
 4034 274 3514 -40 3134 -40 c 0
 2672 -40 2232 274 2232 860 c 0
3146 3072 m 1
 3174 3072 l 1
 1032 0 l 1
 1004 0 l 1
 3146 3072 l 1
778 2212 m 0
 778 1659 844 1336 1044 1336 c 0
 1244 1336 1310 1659 1310 2212 c 0
 1310 2765 1244 3088 1044 3088 c 0
 844 3088 778 2765 778 2212 c 0
144 2212 m 0
 144 2798 582 3112 1044 3112 c 0
 1506 3112 1946 2798 1946 2212 c 0
 1946 1626 1424 1310 1044 1310 c 0
 582 1310 144 1626 144 2212 c 0
EndSplineSet
EndChar

StartChar: uni2031
Encoding: 8241 8241 286
GlifName: uni2031
Width: 8211
Flags: HMW
LayerCount: 2
Fore
SplineSet
6902 860 m 0
 6902 307 6968 -16 7168 -16 c 0
 7368 -16 7434 307 7434 860 c 0
 7434 1413 7368 1736 7168 1736 c 0
 6968 1736 6902 1413 6902 860 c 0
6266 860 m 0
 6266 1446 6706 1762 7168 1762 c 0
 7630 1762 8069 1446 8069 860 c 0
 8069 274 7548 -40 7168 -40 c 0
 6706 -40 6266 274 6266 860 c 0
4874 860 m 0
 4874 307 4940 -16 5140 -16 c 0
 5340 -16 5406 307 5406 860 c 0
 5406 1413 5340 1736 5140 1736 c 0
 4940 1736 4874 1413 4874 860 c 0
4240 860 m 0
 4240 1446 4678 1762 5140 1762 c 0
 5602 1762 6042 1446 6042 860 c 0
 6042 274 5520 -40 5140 -40 c 0
 4678 -40 4240 274 4240 860 c 0
2868 860 m 0
 2868 307 2934 -16 3134 -16 c 0
 3334 -16 3400 307 3400 860 c 0
 3400 1413 3334 1736 3134 1736 c 0
 2934 1736 2868 1413 2868 860 c 0
2232 860 m 0
 2232 1446 2672 1762 3134 1762 c 0
 3596 1762 4034 1446 4034 860 c 0
 4034 274 3514 -40 3134 -40 c 0
 2672 -40 2232 274 2232 860 c 0
3146 3072 m 1
 3174 3072 l 1
 1032 0 l 1
 1004 0 l 1
 3146 3072 l 1
778 2212 m 0
 778 1659 844 1336 1044 1336 c 0
 1244 1336 1310 1659 1310 2212 c 0
 1310 2765 1244 3088 1044 3088 c 0
 844 3088 778 2765 778 2212 c 0
144 2212 m 0
 144 2798 582 3112 1044 3112 c 0
 1506 3112 1946 2798 1946 2212 c 0
 1946 1626 1424 1310 1044 1310 c 0
 582 1310 144 1626 144 2212 c 0
EndSplineSet
EndChar

StartChar: uniFB00
Encoding: 64256 64256 290
GlifName: uniF_B_00
Width: 2866
VWidth: 4730
Flags: HMW
LayerCount: 2
Fore
SplineSet
50 24 m 1
 2736 24 l 1
 2736 0 l 1
 50 0 l 1
 50 24 l 1
50 1884 m 1
 2818 1884 l 1
 2818 1860 l 1
 50 1860 l 1
 50 1884 l 1
2014 2542 m 1
 1981 2700 1752 2882 1494 2882 c 0
 1170 2882 972 2528 972 2008 c 2
 972 0 l 1
 420 0 l 1
 420 1892 l 2
 420 2470 858 2908 1472 2908 c 0
 1824 2908 2079 2659 2079 2421 c 0
 2079 2212 1947 2085 1763 2085 c 0
 1599 2085 1432 2187 1432 2390 c 0
 1432 2593 1569 2705 1743 2705 c 0
 1882 2705 2000 2585 2014 2542 c 1
3196 2762 m 1
 3163 2912 2997 3086 2711 3086 c 0
 2383 3086 2253 2732 2253 2212 c 2
 2253 0 l 1
 1700 0 l 1
 1700 2098 l 2
 1700 2676 2097 3112 2691 3112 c 0
 3043 3112 3256 2880 3256 2646 c 0
 3256 2437 3126 2310 2942 2310 c 0
 2778 2310 2608 2413 2608 2616 c 0
 2608 2819 2760 2931 2934 2931 c 0
 3055 2931 3164 2854 3196 2762 c 1
EndSplineSet
Ligature2: "'liga' Standard Ligatures lookup 0-1" f f
LCarets2: 1 0
EndChar

StartChar: uniFB01
Encoding: 64257 64257 291
GlifName: uniF_B_01
Width: 2569
VWidth: 4730
Flags: HMW
LayerCount: 2
Fore
SplineSet
420 2098 m 2
 420 2696 837 3112 1554 3112 c 0
 1988 3112 2222 2879 2222 2625 c 0
 2222 2416 2091 2290 1907 2290 c 0
 1741 2290 1576 2397 1576 2593 c 0
 1576 2792 1724 2906 1898 2906 c 0
 2027 2906 2129 2835 2160 2728 c 1
 2123 2929 1910 3088 1554 3088 c 0
 1108 3088 972 2732 972 2212 c 2
 972 0 l 1
 420 0 l 1
 420 2098 l 2
50 24 m 1
 2499 24 l 1
 2499 0 l 1
 50 0 l 1
 50 24 l 1
1638 1860 m 1
 50 1860 l 1
 50 1884 l 1
 2212 1884 l 1
 2212 0 l 1
 1638 0 l 1
 1638 1860 l 1
EndSplineSet
Ligature2: "'liga' Standard Ligatures lookup 0-1" f i
LCarets2: 1 0
EndChar

StartChar: uniFB02
Encoding: 64258 64258 292
GlifName: uniF_B_02
Width: 2754
VWidth: 4730
Flags: HMW
LayerCount: 2
Fore
SplineSet
50 24 m 1
 2714 24 l 1
 2714 0 l 1
 50 0 l 1
 50 24 l 1
50 1884 m 1
 1536 1884 l 1
 1536 1860 l 1
 50 1860 l 1
 50 1884 l 1
1812 2990 m 1
 2386 3154 l 1
 2386 0 l 1
 1812 0 l 1
 1812 2990 l 1
1944 2730 m 1
 1920 2894 1744 3086 1452 3086 c 0
 1092 3086 972 2732 972 2212 c 2
 972 0 l 1
 420 0 l 1
 420 2098 l 2
 420 2676 838 3112 1432 3112 c 0
 1784 3112 1997 2879 1997 2625 c 0
 1997 2416 1865 2290 1681 2290 c 0
 1517 2290 1350 2388 1350 2593 c 0
 1350 2798 1490 2910 1670 2910 c 0
 1856 2910 1940 2730 1944 2730 c 1
EndSplineSet
Ligature2: "'liga' Standard Ligatures lookup 0-1" f l
LCarets2: 1 0
EndChar

StartChar: uniFB03
Encoding: 64259 64259 293
GlifName: uniF_B_03
Width: 3808
VWidth: 4730
Flags: HMW
LayerCount: 2
Fore
SplineSet
1658 2098 m 2
 1658 2696 2077 3112 2794 3112 c 0
 3228 3112 3462 2879 3462 2625 c 0
 3462 2416 3330 2290 3146 2290 c 0
 2980 2290 2814 2397 2814 2593 c 0
 2814 2792 2960 2906 3134 2906 c 0
 3285 2906 3378 2824 3400 2728 c 1
 3361 2927 3152 3086 2794 3086 c 0
 2348 3086 2212 2732 2212 2212 c 2
 2212 0 l 1
 1658 0 l 1
 1658 2098 l 2
50 24 m 1
 3738 24 l 1
 3738 0 l 1
 50 0 l 1
 50 24 l 1
420 1892 m 2
 420 2468 858 2908 1472 2908 c 0
 1824 2908 2079 2659 2079 2421 c 0
 2079 2212 1947 2085 1763 2085 c 0
 1599 2085 1432 2187 1432 2390 c 0
 1432 2593 1569 2705 1743 2705 c 0
 1882 2705 1980 2617 1994 2574 c 1
 1945 2718 1756 2880 1494 2880 c 0
 1170 2880 972 2528 972 2008 c 2
 972 0 l 1
 420 0 l 1
 420 1892 l 2
2878 1860 m 1
 50 1860 l 1
 50 1884 l 1
 3451 1884 l 1
 3451 0 l 1
 2878 0 l 1
 2878 1860 l 1
EndSplineSet
Ligature2: "'liga' Standard Ligatures lookup 0-1" f f i
LCarets2: 2 0 0
EndChar

StartChar: uniFB04
Encoding: 64260 64260 294
GlifName: uniF_B_04
Width: 4054
VWidth: 4730
Flags: HMW
LayerCount: 2
Fore
SplineSet
50 24 m 1
 3994 24 l 1
 3994 0 l 1
 50 0 l 1
 50 24 l 1
50 1884 m 1
 2816 1884 l 1
 2816 1860 l 1
 50 1860 l 1
 50 1884 l 1
3093 2990 m 1
 3666 3154 l 1
 3666 0 l 1
 3093 0 l 1
 3093 2990 l 1
1996 2574 m 1
 1947 2718 1752 2882 1494 2882 c 0
 1170 2882 972 2528 972 2008 c 2
 972 0 l 1
 420 0 l 1
 420 1892 l 2
 420 2468 858 2908 1472 2908 c 0
 1824 2908 2079 2659 2079 2421 c 0
 2079 2212 1947 2085 1763 2085 c 0
 1599 2085 1432 2187 1432 2390 c 0
 1432 2593 1569 2705 1743 2705 c 0
 1866 2705 1982 2617 1996 2574 c 1
3217 2744 m 1
 3182 2928 2986 3088 2732 3088 c 0
 2372 3088 2253 2732 2253 2212 c 2
 2253 0 l 1
 1700 0 l 1
 1700 2098 l 2
 1700 2676 2118 3112 2712 3112 c 0
 3064 3112 3276 2879 3276 2625 c 0
 3276 2416 3146 2290 2962 2290 c 0
 2798 2290 2629 2388 2629 2593 c 0
 2629 2798 2769 2910 2949 2910 c 0
 3135 2910 3213 2744 3217 2744 c 1
EndSplineSet
Ligature2: "'liga' Standard Ligatures lookup 0-1" f f l
LCarets2: 2 0 0
EndChar

StartChar: ogonek
Encoding: 731 731 295
GlifName: ogonek
Width: 2252
Flags: HMW
LayerCount: 2
Fore
SplineSet
1640 -504 m 1
 1578 -618 1480 -803 1128 -803 c 0
 858 -803 625 -697 625 -451 c 0
 625 -123 1027 84 1338 176 c 1
 1348 160 l 1
 1262 111 1170 -74 1170 -340 c 0
 1170 -569 1260 -700 1378 -700 c 0
 1494 -700 1560 -610 1624 -496 c 1
 1640 -504 l 1
EndSplineSet
EndChar

StartChar: dotlessi
Encoding: 305 305 296
GlifName: dotlessi
Width: 1309
VWidth: 4730
Flags: HMW
LayerCount: 2
Fore
SplineSet
82 24 m 1
 1229 24 l 1
 1229 0 l 1
 82 0 l 1
 82 24 l 1
368 1860 m 1
 82 1860 l 1
 82 1884 l 1
 942 1884 l 1
 942 0 l 1
 368 0 l 1
 368 1860 l 1
EndSplineSet
EndChar

StartChar: uni0237
Encoding: 567 567 297
GlifName: uni0237
Width: 1328
VWidth: 4730
Flags: HMW
LayerCount: 2
Fore
SplineSet
1020 1884 m 1
 1020 -50 l 2
 1020 -586 704 -1064 131 -1064 c 0
 -242 -1064 -496 -849 -496 -577 c 0
 -496 -368 -340 -242 -160 -242 c 0
 4 -242 172 -340 172 -545 c 0
 172 -742 32 -856 -180 -856 c 0
 -321 -856 -414 -764 -430 -668 c 1
 -418 -848 -207 -1032 82 -1032 c 0
 512 -1032 438 -434 438 86 c 2
 446 1860 l 1
 78 1860 l 1
 78 1884 l 1
 1020 1884 l 1
EndSplineSet
EndChar

StartChar: kgreenlandic
Encoding: 312 312 306
GlifName: kgreenlandic
Width: 2643
VWidth: 4730
Flags: HMW
LayerCount: 2
Fore
SplineSet
2424 0 m 1
 1716 0 l 1
 906 1090 l 1
 2020 1884 l 1
 2056 1884 l 1
 1358 1372 l 1
 2424 0 l 1
1425 24 m 1
 2580 24 l 1
 2580 0 l 1
 1425 0 l 1
 1425 24 l 1
2380 1860 m 1
 1466 1860 l 1
 1466 1884 l 1
 2380 1884 l 1
 2380 1860 l 1
78 24 m 1
 1245 24 l 1
 1245 0 l 1
 78 0 l 1
 78 24 l 1
446 1860 m 1
 78 1860 l 1
 78 1884 l 1
 1020 1884 l 1
 1020 0 l 1
 446 0 l 1
 446 1860 l 1
EndSplineSet
EndChar

StartChar: breve
Encoding: 728 728 307
GlifName: breve
Width: 1228
VWidth: 4730
Flags: HMW
LayerCount: 2
Fore
SplineSet
148 3108 m 1
 148 2918 392 2847 614 2847 c 0
 836 2847 1082 2918 1082 3108 c 1
 1106 3108 l 1
 1106 2715 962 2457 614 2457 c 0
 266 2457 122 2715 122 3108 c 1
 148 3108 l 1
EndSplineSet
EndChar

StartChar: thorn
Encoding: 254 254 318
GlifName: thorn
Width: 2551
VWidth: 4730
Flags: HMW
LayerCount: 2
Fore
SplineSet
901 942 m 0
 901 1564 1133 1922 1561 1922 c 0
 2007 1922 2429 1556 2429 942 c 0
 2429 328 2007 -40 1561 -40 c 0
 1135 -40 901 320 901 942 c 0
922 942 m 0
 922 320 1183 24 1429 24 c 0
 1675 24 1774 360 1774 942 c 0
 1774 1524 1677 1856 1431 1856 c 0
 1181 1856 922 1564 922 942 c 0
62 -1000 m 1
 1209 -1000 l 1
 1209 -1024 l 1
 62 -1024 l 1
 62 -1000 l 1
348 3048 m 1
 62 3048 l 1
 62 3072 l 1
 922 3072 l 1
 922 -1024 l 1
 348 -1024 l 1
 348 3048 l 1
EndSplineSet
EndChar

StartChar: Thorn
Encoding: 222 222 319
GlifName: T_horn
Width: 2744
Flags: HMW
LayerCount: 2
Fore
SplineSet
430 3072 m 1
 1064 3072 l 1
 1064 0 l 1
 430 0 l 1
 430 3072 l 1
62 24 m 1
 1434 24 l 1
 1434 0 l 1
 62 0 l 1
 62 24 l 1
62 3072 m 1
 1434 3072 l 1
 1434 3048 l 1
 62 3048 l 1
 62 3072 l 1
1516 738 m 2
 982 738 l 1
 982 762 l 1
 1372 762 l 2
 1766 762 1905 1234 1905 1598 c 0
 1905 1962 1766 2434 1372 2434 c 2
 982 2434 l 1
 982 2458 l 1
 1516 2458 l 2
 2258 2458 2602 2130 2602 1598 c 0
 2602 1066 2258 738 1516 738 c 2
EndSplineSet
EndChar

StartChar: Dcroat
Encoding: 272 272 320
GlifName: D_croat
Width: 3102
Flags: HMW
LayerCount: 2
Fore
SplineSet
440 3072 m 1
 1075 3072 l 1
 1075 0 l 1
 440 0 l 1
 440 3072 l 1
1382 0 m 2
 72 0 l 1
 72 24 l 1
 1382 24 l 2
 2013 24 2222 730 2222 1536 c 0
 2222 2342 1972 3048 1382 3048 c 2
 72 3048 l 1
 72 3072 l 1
 1382 3072 l 2
 2356 3072 2938 2449 2938 1536 c 0
 2938 623 2316 0 1382 0 c 2
73 1507 m 1
 1494 1507 l 1
 1494 1482 l 1
 73 1482 l 1
 73 1507 l 1
EndSplineSet
EndChar

StartChar: Lslash
Encoding: 321 321 324
GlifName: L_slash
Width: 2518
Flags: HMW
LayerCount: 2
Fore
SplineSet
62 1474 m 1
 1680 2376 l 1
 1680 2348 l 1
 62 1446 l 1
 62 1474 l 1
EndSplineSet
Refer: 23 76 N 1 0 0 1 0 0 2
EndChar

StartChar: lslash
Encoding: 322 322 325
GlifName: lslash
Width: 1406
VWidth: 4730
Flags: HMW
LayerCount: 2
Fore
SplineSet
46 1556 m 1
 1417 2376 l 1
 1417 2346 l 1
 46 1526 l 1
 46 1556 l 1
EndSplineSet
Refer: 49 108 N 1 0 0 1 0 0 2
EndChar

StartChar: eth
Encoding: 240 240 329
GlifName: eth
Width: 2497
VWidth: 4730
Flags: HMW
LayerCount: 2
Fore
SplineSet
532 2580 m 1
 2356 2580 l 1
 2356 2556 l 1
 532 2556 l 1
 532 2580 l 1
2294 1270 m 0
 2294 410 1851 -40 1192 -40 c 0
 533 -40 122 410 122 1024 c 0
 122 1720 626 2018 1081 2018 c 0
 1527 2018 1638 1646 1638 1146 c 1
 1618 1146 l 1
 1618 1682 1467 1958 1196 1958 c 0
 934 1958 798 1676 798 1024 c 0
 798 454 857 -16 1180 -16 c 0
 1503 -16 1618 494 1618 1146 c 1
 1620 1370 l 1
 1620 2124 1164 3096 430 3096 c 1
 430 3112 l 1
 1484 3112 2294 2302 2294 1270 c 0
EndSplineSet
EndChar

StartChar: OE
Encoding: 338 338 330
GlifName: O_E_
Width: 4064
Flags: HMW
LayerCount: 2
Fore
SplineSet
1647 3048 m 1025,0,0
880 1536 m 0,0,0
 880 730 1077 24 1647 24 c 1,0,0
 1564 0 l 1,0,0
 732 0 164 622 164 1536 c 0,0,0
 164 2450 732 3072 1564 3072 c 1,0,0
 1647 3048 l 1,0,0
 1077 3048 880 2342 880 1536 c 0,0,0
EndSplineSet
Refer: 16 69 N 1 0 0 1 1496 0 2
EndChar

StartChar: germandbls
Encoding: 223 223 332
GlifName: germandbls
Width: 3157
VWidth: 4730
Flags: HMW
LayerCount: 2
Fore
SplineSet
1650 1650 m 1
 1650 1672 l 1
 2096 1672 2212 2076 2212 2338 c 0
 2212 2632 2098 3090 1692 3090 c 0
 1184 3090 1044 2552 1044 1970 c 2
 1044 0 l 1
 430 0 l 1
 430 2012 l 2
 430 2762 1044 3112 1712 3112 c 0
 2298 3112 2872 2822 2872 2380 c 0
 2872 1929 2474 1650 1650 1650 c 1
62 24 m 1
 1412 24 l 1
 1412 0 l 1
 62 0 l 1
 62 24 l 1
2994 716 m 0
 2994 224 2528 -40 2032 -40 c 0
 1660 -40 1384 220 1384 638 c 0
 1384 867 1556 986 1740 986 c 0
 1904 986 2064 884 2064 676 c 0
 2064 484 1888 368 1728 368 c 0
 1586 368 1451 461 1419 582 c 1
 1435 225 1697 -8 1970 -8 c 0
 2273 -8 2335 394 2335 656 c 0
 2335 1042 2260 1646 1650 1646 c 1
 1650 1668 l 1
 2638 1668 2994 1248 2994 716 c 0
EndSplineSet
EndChar

StartChar: circumflex
Encoding: 710 710 335
GlifName: circumflex
Width: 1740
Flags: HMW
LayerCount: 2
Fore
SplineSet
868 2867 m 1
 218 2586 l 1
 204 2600 l 1
 696 3154 l 1
 1045 3154 l 1
 1536 2600 l 1
 1524 2586 l 1
 868 2867 l 1
EndSplineSet
EndChar

StartChar: caron
Encoding: 711 711 336
GlifName: caron
Width: 1740
Flags: HMW
LayerCount: 2
Fore
SplineSet
870 2928 m 1
 1522 3208 l 1
 1536 3194 l 1
 1045 2642 l 1
 696 2642 l 1
 204 3194 l 1
 220 3208 l 1
 870 2928 l 1
EndSplineSet
EndChar

StartChar: pi
Encoding: 960 960 337
GlifName: pi
Width: 2583
VWidth: 4730
Flags: HMW
LayerCount: 2
Fore
SplineSet
2441 422 m 1
 2347 136 2190 -40 1896 -40 c 0
 1622 -40 1418 78 1418 340 c 2
 1418 1720 l 1
 1991 1720 l 1
 1991 328 l 2
 1991 246 2033 170 2148 170 c 0
 2248 170 2343 242 2423 434 c 1
 2441 422 l 1
508 -40 m 0
 299 -40 164 74 164 238 c 0
 164 620 806 438 806 1142 c 2
 806 1844 l 1
 1036 1844 l 1
 1036 996 l 2
 1036 348 848 -40 508 -40 c 0
2359 1884 m 1
 2359 1311 l 1
 192 1311 l 1
 192 1003 l 1
 168 1003 l 1
 168 1884 l 1
 2359 1884 l 1
EndSplineSet
EndChar

StartChar: uni1E9E
Encoding: 7838 7838 338
GlifName: uni1E_9E_
Width: 3649
VWidth: 4730
Flags: HMW
LayerCount: 2
Fore
SplineSet
62 24 m 1
 1454 24 l 1
 1454 0 l 1
 62 0 l 1
 62 24 l 1
2509 1624 m 1
 2331 1649 2059 1693 1876 1700 c 1
 2876 2943 l 1
 2748 3002 2486 3086 2162 3086 c 0
 1368 3086 1086 2532 1086 1766 c 2
 1086 0 l 1
 430 0 l 1
 430 1806 l 2
 430 2678 1188 3112 2162 3112 c 0
 2788 3112 3219 2842 3363 2686 c 1
 2509 1624 l 1
1458 563 m 1
 1499 274 1800 4 2236 4 c 0
 2672 4 2816 373 2816 819 c 0
 2816 1183 2670 1676 1876 1676 c 1
 1876 1700 l 1
 3129 1700 3486 1321 3486 829 c 0
 3486 276 2979 -40 2360 -40 c 0
 1717 -40 1412 324 1412 660 c 0
 1412 889 1568 1038 1772 1038 c 0
 1956 1038 2095 906 2095 698 c 0
 2095 506 1930 368 1750 368 c 0
 1605 368 1493 475 1458 563 c 1
EndSplineSet
EndChar

StartChar: uni203D
Encoding: 8253 8253 339
GlifName: uni203D_
Width: 2702
Flags: HMW
LayerCount: 2
Fore
SplineSet
1662 2126 m 0
 1616 1732 1332 1281 1332 995 c 1
 1307 995 l 1
 1307 1281 1103 1732 1057 2126 c 0
 1053 2154 1053 2180 1053 2204 c 0
 1053 2318 1126 2510 1360 2510 c 0
 1594 2510 1666 2318 1666 2204 c 0
 1666 2180 1666 2154 1662 2126 c 0
266 2277 m 0
 266 2653 671 3112 1396 3112 c 0
 2014 3112 2540 2805 2540 2252 c 0
 2540 1719 1917 1372 1380 1372 c 1
 1380 1392 l 1
 1716 1408 2003 1864 2003 2294 c 0
 2003 2680 1748 3060 1302 3060 c 0
 720 3060 361 2672 324 2386 c 1
 348 2468 450 2560 602 2560 c 0
 782 2560 897 2396 897 2252 c 0
 897 2027 725 1921 582 1921 c 0
 418 1921 266 2048 266 2277 c 0
EndSplineSet
Refer: 1 46 N 1 0 0 1 775 0 2
EndChar

StartChar: R.alt
Encoding: 65536 -1 340
GlifName: R_.alt
Width: 2979
Flags: HMW
LayerCount: 2
Fore
SplineSet
1505 1568 m 2
 808 1568 l 1
 808 1590 l 1
 1403 1590 l 2
 1797 1590 1997 1827 1997 2314 c 0
 1997 2801 1797 3048 1403 3048 c 2
 72 3048 l 1
 72 3072 l 1
 1505 3072 l 2
 2185 3072 2652 2846 2652 2314 c 0
 2652 1782 2225 1568 1505 1568 c 2
72 24 m 1
 1526 24 l 1
 1526 0 l 1
 72 0 l 1
 72 24 l 1
481 3072 m 1
 1116 3072 l 1
 1116 0 l 1
 481 0 l 1
 481 3072 l 1
2939 0 m 1
 2873 0 2636 0 2488 0 c 0
 1411 0 2390 1564 1382 1564 c 2
 808 1564 l 1
 808 1576 l 1
 1710 1576 l 2
 3094 1576 2271 24 2795 24 c 0
 2881 24 2881 24 2939 24 c 1
 2939 0 l 1
EndSplineSet
EndChar

StartChar: J.alt
Encoding: 65537 -1 341
GlifName: J_.alt
Width: 2593
Flags: HMW
LayerCount: 2
Fore
SplineSet
977 3072 m 1
 2533 3072 l 1
 2533 3048 l 1
 977 3048 l 1
 977 3072 l 1
1489 3072 m 1
 2124 3072 l 1
 2124 922 l 1
 2001 348 1656 -82 936 -82 c 0
 396 -82 72 308 72 676 c 0
 72 991 285 1168 510 1168 c 0
 714 1168 883 1031 883 792 c 0
 883 588 714 420 494 420 c 0
 304 420 160 512 112 624 c 1
 143 257 471 -51 895 -51 c 0
 1329 -51 1489 327 1489 901 c 2
 1489 3072 l 1
EndSplineSet
EndChar

StartChar: four.alt
Encoding: 65538 -1 342
GlifName: four.alt
Width: 2682
VWidth: 4730
Flags: HMW
LayerCount: 2
Fore
SplineSet
2416 24 m 1
 2416 0 l 1
 1086 0 l 1
 1086 24 l 1
 2416 24 l 1
2110 2040 m 1
 2110 -4 l 1
 1474 -4 l 1
 1474 1856 l 1
 1658 1856 1987 1958 2110 2040 c 1
104 797 m 1
 2478 797 l 1
 2478 772 l 1
 62 772 l 1
 636 1592 1270 2458 1352 3072 c 1
 2040 3072 l 1
 1962 2376 682 1591 104 797 c 1
EndSplineSet
EndChar

StartChar: fj.lig
Encoding: 65539 -1 343
GlifName: fj.lig
Width: 2502
VWidth: 4730
Flags: HMW
LayerCount: 2
Fore
SplineSet
50 24 m 1
 1352 24 l 1
 1352 0 l 1
 50 0 l 1
 50 24 l 1
2191 -50 m 2
 2191 -586 1875 -1064 1302 -1064 c 0
 929 -1064 676 -862 676 -588 c 0
 676 -379 828 -242 1012 -242 c 0
 1176 -242 1343 -340 1343 -545 c 0
 1343 -750 1187 -856 999 -856 c 0
 868 -856 772 -772 741 -678 c 1
 763 -874 981 -1034 1262 -1034 c 0
 1692 -1034 1618 -438 1618 82 c 2
 1618 1860 l 1
 50 1860 l 1
 50 1884 l 1
 2191 1884 l 1
 2191 -50 l 2
2120 2775 m 1
 2069 2923 1898 3086 1534 3086 c 0
 1104 3086 972 2732 972 2212 c 2
 972 0 l 1
 420 0 l 1
 420 2098 l 2
 420 2696 817 3112 1534 3112 c 0
 1968 3112 2202 2879 2202 2625 c 0
 2202 2416 2070 2290 1886 2290 c 0
 1722 2290 1555 2388 1555 2593 c 0
 1555 2798 1708 2906 1878 2906 c 0
 1997 2906 2083 2841 2120 2775 c 1
EndSplineSet
LCarets2: 1 0
Ligature2: "'liga' Standard Ligatures lookup 0-1" f j
EndChar

StartChar: uni2116
Encoding: 8470 8470 344
GlifName: uni2116
Width: 4693
Flags: HW
LayerCount: 2
Fore
SplineSet
3542 2334 m 0
 3542 1868 3625 1582 3826 1582 c 0
 4027 1582 4108 1868 4108 2334 c 0
 4108 2800 4027 3088 3826 3088 c 0
 3625 3088 3542 2800 3542 2334 c 0
3072 2334 m 0
 3072 2846 3392 3112 3826 3112 c 0
 4260 3112 4580 2846 4580 2334 c 0
 4580 1822 4260 1556 3826 1556 c 0
 3392 1556 3072 1822 3072 2334 c 0
EndSplineSet
Refer: 85 45 N 1 0 0 1 3089 164 2
Refer: 25 78 N 1 0 0 1 0 0 2
EndChar

StartChar: Euro
Encoding: 8364 8364 345
Width: 2969
Flags: HW
LayerCount: 2
Fore
SplineSet
2699 2662 m 1
 2623 2838 2347 3078 1962 3078 c 0
 1372 3078 1188 2330 1188 1536 c 0
 1188 660 1417 10 1884 10 c 0
 2290 10 2609 348 2711 730 c 1
 2736 730 l 1
 2630 332 2311 -40 1774 -40 c 0
 1053 -40 451 594 451 1536 c 0
 451 2396 996 3112 1880 3112 c 0
 2441 3112 2786 2756 2786 2482 c 0
 2786 2253 2634 2126 2450 2126 c 0
 2286 2126 2114 2233 2114 2458 c 0
 2114 2662 2270 2785 2450 2785 c 0
 2574 2785 2668 2710 2699 2662 c 1
EndSplineSet
Refer: 88 61 N 1 0 0 1 -123 -287 2
EndChar

